<svg width="14" height="14" viewBox="0 0 14 14" fill="none" xmlns="http://www.w3.org/2000/svg">
<path d="M7.36328 12.9805C6.94531 13.3984 6.52148 13.6074 6.0918 13.6074C5.66211 13.6113 5.23242 13.4004 4.80273 12.9746L1.09375 9.27148C0.664062 8.8418 0.451172 8.41211 0.455078 7.98242C0.458984 7.55273 0.669922 7.12891 1.08789 6.71094L6.81836 0.992188C6.96289 0.847656 7.0957 0.742187 7.2168 0.675781C7.33789 0.609375 7.4668 0.568359 7.60352 0.552734C7.74414 0.533203 7.91602 0.523438 8.11914 0.523438H10.3516C10.5586 0.523438 10.7266 0.542969 10.8555 0.582031C10.9883 0.617188 11.1094 0.679688 11.2188 0.769531C11.3281 0.855469 11.457 0.970703 11.6055 1.11523L12.9531 2.46289C13.1016 2.61133 13.2188 2.74219 13.3047 2.85547C13.3906 2.96484 13.4512 3.08594 13.4863 3.21875C13.5254 3.34766 13.5449 3.51562 13.5449 3.72266V5.94922C13.5449 6.15625 13.5371 6.33008 13.5215 6.4707C13.5059 6.60742 13.4648 6.73633 13.3984 6.85742C13.332 6.97461 13.2246 7.10742 13.0762 7.25586L7.36328 12.9805ZM6.73047 12.2715L12.4141 6.58789C12.4727 6.5293 12.5176 6.4668 12.5488 6.40039C12.584 6.33398 12.6016 6.25195 12.6016 6.1543V3.68164C12.6016 3.52148 12.5391 3.37891 12.4141 3.25391L10.8203 1.66016C10.6914 1.53125 10.5469 1.4668 10.3867 1.4668H7.91992C7.82227 1.4668 7.74023 1.48438 7.67383 1.51953C7.60742 1.55469 7.54297 1.60156 7.48047 1.66016L1.79688 7.33789C1.58594 7.54492 1.48047 7.75977 1.48047 7.98242C1.48047 8.20117 1.58789 8.41797 1.80273 8.63281L5.43555 12.2656C5.86914 12.7031 6.30078 12.7051 6.73047 12.2715ZM9.66602 5.21094C9.43555 5.21094 9.24414 5.13281 9.0918 4.97656C8.93945 4.82031 8.86328 4.63086 8.86328 4.4082C8.86328 4.18164 8.93945 3.99219 9.0918 3.83984C9.24414 3.68359 9.43555 3.60547 9.66602 3.60547C9.89648 3.60547 10.0879 3.68359 10.2402 3.83984C10.3926 3.99219 10.4688 4.18164 10.4688 4.4082C10.4688 4.63086 10.3926 4.82031 10.2402 4.97656C10.0879 5.13281 9.89648 5.21094 9.66602 5.21094Z" fill="black" fill-opacity="0.5"/>
</svg>
