<svg width="13" height="12" viewBox="0 0 13 12" fill="none" xmlns="http://www.w3.org/2000/svg">
<path d="M2.49805 11.1719C1.88477 11.1719 1.42383 11.0195 1.11523 10.7148C0.810547 10.4141 0.658203 9.96094 0.658203 9.35547V2.20117C0.658203 1.5957 0.810547 1.14258 1.11523 0.841797C1.42383 0.537109 1.88477 0.384766 2.49805 0.384766H10.502C11.1152 0.384766 11.5742 0.537109 11.8789 0.841797C12.1836 1.14258 12.3359 1.5957 12.3359 2.20117V9.35547C12.3359 9.96094 12.1836 10.4141 11.8789 10.7148C11.5742 11.0195 11.1152 11.1719 10.502 11.1719H2.49805ZM2.41016 10.2285H10.5781C10.8398 10.2285 11.041 10.1582 11.1816 10.0176C11.3223 9.88086 11.3926 9.67773 11.3926 9.4082V3.88281C11.3926 3.61328 11.3223 3.41016 11.1816 3.27344C11.041 3.13281 10.8398 3.0625 10.5781 3.0625H2.41016C2.15234 3.0625 1.95312 3.13281 1.8125 3.27344C1.67188 3.41016 1.60156 3.61328 1.60156 3.88281V9.4082C1.60156 9.67773 1.67188 9.88086 1.8125 10.0176C1.95312 10.1582 2.15234 10.2285 2.41016 10.2285ZM5.35742 5.17188C5.25586 5.17188 5.18359 5.15234 5.14062 5.11328C5.10156 5.07422 5.08203 5.00391 5.08203 4.90234V4.55664C5.08203 4.45508 5.10156 4.38672 5.14062 4.35156C5.18359 4.3125 5.25586 4.29297 5.35742 4.29297H5.70312C5.80469 4.29297 5.875 4.3125 5.91406 4.35156C5.95703 4.38672 5.97852 4.45508 5.97852 4.55664V4.90234C5.97852 5.00391 5.95703 5.07422 5.91406 5.11328C5.875 5.15234 5.80469 5.17188 5.70312 5.17188H5.35742ZM7.30273 5.17188C7.20117 5.17188 7.13086 5.15234 7.0918 5.11328C7.05273 5.07422 7.0332 5.00391 7.0332 4.90234V4.55664C7.0332 4.45508 7.05273 4.38672 7.0918 4.35156C7.13086 4.3125 7.20117 4.29297 7.30273 4.29297H7.64844C7.75391 4.29297 7.82617 4.3125 7.86523 4.35156C7.9043 4.38672 7.92383 4.45508 7.92383 4.55664V4.90234C7.92383 5.00391 7.9043 5.07422 7.86523 5.11328C7.82617 5.15234 7.75391 5.17188 7.64844 5.17188H7.30273ZM9.25391 5.17188C9.14844 5.17188 9.07617 5.15234 9.03711 5.11328C8.99805 5.07422 8.97852 5.00391 8.97852 4.90234V4.55664C8.97852 4.45508 8.99805 4.38672 9.03711 4.35156C9.07617 4.3125 9.14844 4.29297 9.25391 4.29297H9.59375C9.69922 4.29297 9.77148 4.3125 9.81055 4.35156C9.84961 4.38672 9.86914 4.45508 9.86914 4.55664V4.90234C9.86914 5.00391 9.84961 5.07422 9.81055 5.11328C9.77148 5.15234 9.69922 5.17188 9.59375 5.17188H9.25391ZM3.41211 7.08789C3.30664 7.08789 3.23438 7.06836 3.19531 7.0293C3.15625 6.99023 3.13672 6.91992 3.13672 6.81836V6.47852C3.13672 6.37305 3.15625 6.30273 3.19531 6.26758C3.23438 6.22852 3.30664 6.20898 3.41211 6.20898H3.75781C3.85938 6.20898 3.92969 6.22852 3.96875 6.26758C4.00781 6.30273 4.02734 6.37305 4.02734 6.47852V6.81836C4.02734 6.91992 4.00781 6.99023 3.96875 7.0293C3.92969 7.06836 3.85938 7.08789 3.75781 7.08789H3.41211ZM5.35742 7.08789C5.25586 7.08789 5.18359 7.06836 5.14062 7.0293C5.10156 6.99023 5.08203 6.91992 5.08203 6.81836V6.47852C5.08203 6.37305 5.10156 6.30273 5.14062 6.26758C5.18359 6.22852 5.25586 6.20898 5.35742 6.20898H5.70312C5.80469 6.20898 5.875 6.22852 5.91406 6.26758C5.95703 6.30273 5.97852 6.37305 5.97852 6.47852V6.81836C5.97852 6.91992 5.95703 6.99023 5.91406 7.0293C5.875 7.06836 5.80469 7.08789 5.70312 7.08789H5.35742ZM7.30273 7.08789C7.20117 7.08789 7.13086 7.06836 7.0918 7.0293C7.05273 6.99023 7.0332 6.91992 7.0332 6.81836V6.47852C7.0332 6.37305 7.05273 6.30273 7.0918 6.26758C7.13086 6.22852 7.20117 6.20898 7.30273 6.20898H7.64844C7.75391 6.20898 7.82617 6.22852 7.86523 6.26758C7.9043 6.30273 7.92383 6.37305 7.92383 6.47852V6.81836C7.92383 6.91992 7.9043 6.99023 7.86523 7.0293C7.82617 7.06836 7.75391 7.08789 7.64844 7.08789H7.30273ZM9.25391 7.08789C9.14844 7.08789 9.07617 7.06836 9.03711 7.0293C8.99805 6.99023 8.97852 6.91992 8.97852 6.81836V6.47852C8.97852 6.37305 8.99805 6.30273 9.03711 6.26758C9.07617 6.22852 9.14844 6.20898 9.25391 6.20898H9.59375C9.69922 6.20898 9.77148 6.22852 9.81055 6.26758C9.84961 6.30273 9.86914 6.37305 9.86914 6.47852V6.81836C9.86914 6.91992 9.84961 6.99023 9.81055 7.0293C9.77148 7.06836 9.69922 7.08789 9.59375 7.08789H9.25391ZM3.41211 9.00391C3.30664 9.00391 3.23438 8.98633 3.19531 8.95117C3.15625 8.91211 3.13672 8.83984 3.13672 8.73438V8.39453C3.13672 8.28906 3.15625 8.21875 3.19531 8.18359C3.23438 8.14453 3.30664 8.125 3.41211 8.125H3.75781C3.85938 8.125 3.92969 8.14453 3.96875 8.18359C4.00781 8.21875 4.02734 8.28906 4.02734 8.39453V8.73438C4.02734 8.83984 4.00781 8.91211 3.96875 8.95117C3.92969 8.98633 3.85938 9.00391 3.75781 9.00391H3.41211ZM5.35742 9.00391C5.25586 9.00391 5.18359 8.98633 5.14062 8.95117C5.10156 8.91211 5.08203 8.83984 5.08203 8.73438V8.39453C5.08203 8.28906 5.10156 8.21875 5.14062 8.18359C5.18359 8.14453 5.25586 8.125 5.35742 8.125H5.70312C5.80469 8.125 5.875 8.14453 5.91406 8.18359C5.95703 8.21875 5.97852 8.28906 5.97852 8.39453V8.73438C5.97852 8.83984 5.95703 8.91211 5.91406 8.95117C5.875 8.98633 5.80469 9.00391 5.70312 9.00391H5.35742ZM7.30273 9.00391C7.20117 9.00391 7.13086 8.98633 7.0918 8.95117C7.05273 8.91211 7.0332 8.83984 7.0332 8.73438V8.39453C7.0332 8.28906 7.05273 8.21875 7.0918 8.18359C7.13086 8.14453 7.20117 8.125 7.30273 8.125H7.64844C7.75391 8.125 7.82617 8.14453 7.86523 8.18359C7.9043 8.21875 7.92383 8.28906 7.92383 8.39453V8.73438C7.92383 8.83984 7.9043 8.91211 7.86523 8.95117C7.82617 8.98633 7.75391 9.00391 7.64844 9.00391H7.30273Z" fill="black" fill-opacity="0.5"/>
</svg>
