<svg width="16" height="10" viewBox="0 0 16 10" fill="none" xmlns="http://www.w3.org/2000/svg">
<path d="M1.37305 1.96875C1.16992 1.96875 0.996094 1.89844 0.851562 1.75781C0.707031 1.61328 0.634766 1.4375 0.634766 1.23047C0.634766 1.02734 0.707031 0.853516 0.851562 0.708984C0.996094 0.564453 1.16992 0.492188 1.37305 0.492188C1.57617 0.492188 1.75 0.564453 1.89453 0.708984C2.03906 0.853516 2.11133 1.02734 2.11133 1.23047C2.11133 1.4375 2.03906 1.61328 1.89453 1.75781C1.75 1.89844 1.57617 1.96875 1.37305 1.96875ZM3.96289 1.70508C3.83008 1.70508 3.7168 1.66016 3.62305 1.57031C3.5332 1.47656 3.48828 1.36328 3.48828 1.23047C3.48828 1.09766 3.5332 0.986328 3.62305 0.896484C3.7168 0.806641 3.83008 0.761719 3.96289 0.761719H11.9609C12.0938 0.761719 12.207 0.806641 12.3008 0.896484C12.3945 0.986328 12.4414 1.09766 12.4414 1.23047C12.4414 1.36328 12.3945 1.47656 12.3008 1.57031C12.207 1.66016 12.0938 1.70508 11.9609 1.70508H3.96289ZM2.83789 5.51367C2.63086 5.51367 2.45508 5.44141 2.31055 5.29688C2.16992 5.15234 2.09961 4.97852 2.09961 4.77539C2.09961 4.57227 2.16992 4.39844 2.31055 4.25391C2.45508 4.10938 2.63086 4.03711 2.83789 4.03711C3.04102 4.03711 3.21484 4.10938 3.35938 4.25391C3.50391 4.39844 3.57617 4.57227 3.57617 4.77539C3.57617 4.97852 3.50391 5.15234 3.35938 5.29688C3.21484 5.44141 3.04102 5.51367 2.83789 5.51367ZM5.42188 5.24414C5.29297 5.24414 5.18164 5.19922 5.08789 5.10938C4.99805 5.01953 4.95312 4.9082 4.95312 4.77539C4.95312 4.64258 4.99805 4.53125 5.08789 4.44141C5.18164 4.34766 5.29297 4.30078 5.42188 4.30078H13.4258C13.5586 4.30078 13.6699 4.34766 13.7598 4.44141C13.8535 4.53125 13.9004 4.64258 13.9004 4.77539C13.9004 4.9082 13.8535 5.01953 13.7598 5.10938C13.6699 5.19922 13.5586 5.24414 13.4258 5.24414H5.42188ZM4.29688 9.05273C4.09375 9.05273 3.91992 8.98242 3.77539 8.8418C3.63086 8.69727 3.55859 8.52148 3.55859 8.31445C3.55859 8.11133 3.63086 7.93945 3.77539 7.79883C3.91992 7.6543 4.09375 7.58203 4.29688 7.58203C4.50391 7.58203 4.67773 7.6543 4.81836 7.79883C4.96289 7.93945 5.03516 8.11133 5.03516 8.31445C5.03516 8.52148 4.96289 8.69727 4.81836 8.8418C4.67773 8.98242 4.50391 9.05273 4.29688 9.05273ZM6.88672 8.78906C6.75391 8.78906 6.64258 8.74414 6.55273 8.6543C6.46289 8.56055 6.41797 8.44727 6.41797 8.31445C6.41797 8.18164 6.46289 8.07031 6.55273 7.98047C6.64258 7.89062 6.75391 7.8457 6.88672 7.8457H14.8906C15.0234 7.8457 15.1348 7.89062 15.2246 7.98047C15.3184 8.07031 15.3652 8.18164 15.3652 8.31445C15.3652 8.44727 15.3184 8.56055 15.2246 8.6543C15.1348 8.74414 15.0234 8.78906 14.8906 8.78906H6.88672Z" fill="black" fill-opacity="0.5"/>
</svg>
