<svg width="14" height="13" viewBox="0 0 14 13" fill="none" xmlns="http://www.w3.org/2000/svg">
<path d="M4.14648 12.209C3.94336 12.209 3.78516 12.1406 3.67188 12.0039C3.5625 11.8711 3.50781 11.6914 3.50781 11.4648V9.94141H3.22656C2.64453 9.94141 2.1543 9.83789 1.75586 9.63086C1.35742 9.41992 1.05469 9.11523 0.847656 8.7168C0.644531 8.31836 0.542969 7.83203 0.542969 7.25781V2.76953C0.542969 2.19531 0.644531 1.70898 0.847656 1.31055C1.05469 0.912109 1.35742 0.609375 1.75586 0.402344C2.1543 0.191406 2.64453 0.0859375 3.22656 0.0859375H10.7734C11.3555 0.0859375 11.8457 0.191406 12.2441 0.402344C12.6426 0.609375 12.9434 0.912109 13.1465 1.31055C13.3535 1.70898 13.457 2.19531 13.457 2.76953V7.25781C13.457 7.83203 13.3535 8.31836 13.1465 8.7168C12.9434 9.11523 12.6426 9.41992 12.2441 9.63086C11.8457 9.83789 11.3555 9.94141 10.7734 9.94141H7.01172L4.99023 11.7402C4.81445 11.8965 4.66602 12.0137 4.54492 12.0918C4.42383 12.1699 4.29102 12.209 4.14648 12.209ZM4.38672 11.1367L6.26172 9.27344C6.37109 9.16016 6.47656 9.08594 6.57812 9.05078C6.67969 9.01562 6.8125 8.99805 6.97656 8.99805H10.7734C11.3633 8.99805 11.8008 8.85156 12.0859 8.55859C12.3711 8.26172 12.5137 7.82617 12.5137 7.25195V2.76953C12.5137 2.19922 12.3711 1.76758 12.0859 1.47461C11.8008 1.17773 11.3633 1.0293 10.7734 1.0293H3.22656C2.63281 1.0293 2.19336 1.17773 1.9082 1.47461C1.62695 1.76758 1.48633 2.19922 1.48633 2.76953V7.25195C1.48633 7.82617 1.62695 8.26172 1.9082 8.55859C2.19336 8.85156 2.63281 8.99805 3.22656 8.99805H3.94727C4.10742 8.99805 4.2207 9.03125 4.28711 9.09766C4.35352 9.16406 4.38672 9.27734 4.38672 9.4375V11.1367Z" fill="black" fill-opacity="0.5"/>
</svg>
