<svg width="16" height="16" viewBox="0 0 16 16" fill="none" xmlns="http://www.w3.org/2000/svg">
<path d="M12.2295 9.90814C12.0322 10.0993 11.9416 10.3758 11.9865 10.6469L12.6636 14.3941C12.7207 14.7117 12.5867 15.0331 12.3209 15.2166C12.0604 15.407 11.7139 15.4299 11.4298 15.2775L8.0566 13.5182C7.93931 13.4557 7.80908 13.4222 7.6758 13.4184H7.4694C7.39781 13.4291 7.32774 13.4519 7.26376 13.487L3.88982 15.2547C3.72303 15.3385 3.53415 15.3682 3.34908 15.3385C2.8982 15.2532 2.59737 14.8236 2.67124 14.3705L3.34908 10.6233C3.39401 10.3499 3.30338 10.0719 3.10612 9.87767L0.355944 7.21201C0.125938 6.98886 0.0459684 6.65375 0.151071 6.35138C0.253127 6.04978 0.513598 5.82968 0.828144 5.78017L4.61335 5.23105C4.90124 5.20134 5.1541 5.02617 5.28357 4.76722L6.9515 1.34756C6.99111 1.2714 7.04213 1.20133 7.10383 1.14192L7.17237 1.08861C7.20817 1.04901 7.24929 1.01626 7.29499 0.989601L7.37801 0.959136L7.50748 0.905823H7.82812C8.11448 0.935526 8.36658 1.10689 8.49834 1.36279L10.1884 4.76722C10.3102 5.01627 10.5471 5.18916 10.8205 5.23105L14.6057 5.78017C14.9256 5.82587 15.1929 6.04674 15.2988 6.35138C15.3985 6.65679 15.3125 6.9919 15.0779 7.21201L12.2295 9.90814Z" fill="#F6B76F" style="fill:#F6B76F;fill:color(display-p3 0.9647 0.7176 0.4353);fill-opacity:1;"/>
</svg>
