<svg width="14" height="10" viewBox="0 0 14 10" fill="none" xmlns="http://www.w3.org/2000/svg">
<path d="M5.81881 4.59998C6.0955 4.4608 6.30468 4.30579 6.44803 4.13827C6.70305 3.83658 6.82889 3.43655 6.82889 2.94068C6.82889 2.45814 6.70305 2.0456 6.45136 1.69974C6.03133 1.13637 5.32044 0.848009 4.31536 0.833008H0.333374V8.96116H4.04617C4.46454 8.96116 4.85207 8.92532 5.21043 8.85198C5.56879 8.77781 5.87882 8.64197 6.14134 8.44362C6.37469 8.2711 6.56971 8.05692 6.72472 7.8044C6.96974 7.4227 7.09225 6.99017 7.09225 6.50846C7.09225 6.04176 6.98474 5.64423 6.77139 5.31753C6.55554 4.99084 6.23885 4.75165 5.81881 4.59998ZM1.97601 2.24479H3.76948C4.16368 2.24479 4.48871 2.28729 4.74373 2.37146C5.03875 2.49397 5.18626 2.74316 5.18626 3.12319C5.18626 3.46405 5.07375 3.7024 4.85124 3.83658C4.62705 3.97076 4.33619 4.03826 3.9795 4.03826H1.97601V2.24479ZM4.81207 7.4077C4.61372 7.50354 4.33453 7.55104 3.977 7.55104H1.97601V5.38337H4.0045C4.35786 5.38587 4.63288 5.43254 4.82957 5.52005C5.17959 5.67839 5.35378 5.96842 5.35378 6.39262C5.35378 6.89266 5.17376 7.22935 4.81207 7.4077Z" fill="#424242"/>
<path d="M12.3852 1.2122H8.85413V2.22395H12.3852V1.2122Z" fill="#424242"/>
<path d="M13.612 5.20505C13.5386 4.73418 13.3769 4.31998 13.1252 3.96245C12.8494 3.55742 12.4994 3.26073 12.0735 3.07321C11.6493 2.88487 11.1718 2.79069 10.6401 2.79152C9.74748 2.79152 9.02242 3.07071 8.46155 3.62492C7.90234 4.1808 7.62231 4.98003 7.62231 6.02178C7.62231 7.1327 7.93151 7.93526 8.55322 8.4278C9.17244 8.92117 9.88749 9.16703 10.6992 9.16703C11.6818 9.16703 12.446 8.8745 12.9919 8.29112C13.3411 7.92276 13.5386 7.56023 13.5819 7.20437H11.9552C11.861 7.38022 11.7518 7.51773 11.6268 7.61774C11.4001 7.80108 11.1051 7.89276 10.7434 7.89276C10.3992 7.89276 10.1075 7.81692 9.86416 7.66607C9.46246 7.42439 9.25244 7.00102 9.22577 6.39847H13.6653C13.672 5.87927 13.6553 5.48007 13.612 5.20505ZM9.26578 5.36089C9.32411 4.97003 9.46579 4.66 9.69081 4.43082C9.91583 4.20247 10.2342 4.08746 10.6417 4.08663C11.0176 4.08663 11.3318 4.19413 11.5876 4.40999C11.8401 4.6275 11.9827 4.94336 12.0118 5.36089H9.26578Z" fill="#424242"/>
</svg>
