<svg width="12" height="15" viewBox="0 0 12 15" fill="none" xmlns="http://www.w3.org/2000/svg">
<path d="M6 4C6.74 4 7.33333 3.4 7.33333 2.66667C7.33333 2.41333 7.26667 2.18 7.14 1.98L6 0L4.86 1.98C4.73333 2.18 4.66667 2.41333 4.66667 2.66667C4.66667 3.4 5.26667 4 6 4ZM9.06667 10.66L8.35333 9.94667L7.63333 10.66C6.76667 11.5267 5.24667 11.5333 4.37333 10.66L3.66 9.94667L2.93333 10.66C2.5 11.0933 1.92 11.3333 1.30667 11.3333C0.82 11.3333 0.373333 11.18 0 10.9267V14C0 14.3667 0.3 14.6667 0.666667 14.6667H11.3333C11.7 14.6667 12 14.3667 12 14V10.9267C11.6267 11.18 11.18 11.3333 10.6933 11.3333C10.08 11.3333 9.5 11.0933 9.06667 10.66V10.66ZM10 6H6.66667V4.66667H5.33333V6H2C0.893333 6 0 6.89333 0 8V9.02667C0 9.74667 0.586667 10.3333 1.30667 10.3333C1.65333 10.3333 1.98667 10.2 2.22667 9.95333L3.65333 8.53333L5.07333 9.95333C5.56667 10.4467 6.42667 10.4467 6.92 9.95333L8.34667 8.53333L9.76667 9.95333C10.0133 10.2 10.34 10.3333 10.6867 10.3333C11.4067 10.3333 11.9933 9.74667 11.9933 9.02667V8C12 6.89333 11.1067 6 10 6Z" fill="#424242"/>
</svg>
