<svg width="16" height="8" viewBox="0 0 16 8" fill="none" xmlns="http://www.w3.org/2000/svg">
<path d="M14 0H1.99996C1.26663 0 0.666626 0.6 0.666626 1.33333V6.66667C0.666626 7.4 1.26663 8 1.99996 8H14C14.7333 8 15.3333 7.4 15.3333 6.66667V1.33333C15.3333 0.6 14.7333 0 14 0ZM7.33329 4.66667H5.33329V6.66667H3.99996V4.66667H1.99996V3.33333H3.99996V1.33333H5.33329V3.33333H7.33329V4.66667ZM10.3333 6C9.77996 6 9.33329 5.55333 9.33329 5C9.33329 4.44667 9.77996 4 10.3333 4C10.8866 4 11.3333 4.44667 11.3333 5C11.3333 5.55333 10.8866 6 10.3333 6ZM13 4C12.4466 4 12 3.55333 12 3C12 2.44667 12.4466 2 13 2C13.5533 2 14 2.44667 14 3C14 3.55333 13.5533 4 13 4Z" fill="#424242"/>
</svg>
