<svg width="12" height="12" viewBox="0 0 12 12" fill="none" xmlns="http://www.w3.org/2000/svg">
<path d="M10.6667 0H1.33333C0.596667 0 0 0.596667 0 1.33333V10.6667C0 11.4033 0.596667 12 1.33333 12H10.6667C11.4033 12 12 11.4033 12 10.6667V1.33333C12 0.596667 11.4033 0 10.6667 0ZM4 9.33333H2.318V4.66667H4V9.33333ZM3.12933 3.81133C2.61533 3.81133 2.272 3.46867 2.272 3.01133C2.272 2.554 2.61467 2.21133 3.186 2.21133C3.7 2.21133 4.04333 2.554 4.04333 3.01133C4.04333 3.46867 3.70067 3.81133 3.12933 3.81133ZM10 9.33333H8.372V6.78267C8.372 6.07733 7.938 5.91467 7.77533 5.91467C7.61267 5.91467 7.07 6.02333 7.07 6.78267C7.07 6.89133 7.07 9.33333 7.07 9.33333H5.388V4.66667H7.07V5.318C7.28667 4.938 7.72067 4.66667 8.53467 4.66667C9.34867 4.66667 10 5.318 10 6.78267V9.33333Z" fill="#424242"/>
</svg>
