<svg width="14" height="12" viewBox="0 0 14 12" fill="none" xmlns="http://www.w3.org/2000/svg">
<path d="M11.7249 0.624023C13.015 0.657921 13.6603 1.39024 13.6667 2.8229C13.6667 2.91692 13.6635 3.01477 13.6584 3.11519C13.6015 4.32975 12.6977 5.98435 10.9434 8.07833C9.134 10.2721 7.59901 11.3703 6.3384 11.376C5.55427 11.376 4.90318 10.7044 4.38064 9.36069L3.83188 7.5187L3.28952 5.67927C2.88978 4.34638 2.46254 3.68122 2.00652 3.68122C1.90674 3.68122 1.56073 3.87565 0.966559 4.26324L0.333374 3.51429L1.31577 2.69818L2.28218 1.89039C3.14753 1.19709 3.80566 0.822293 4.2572 0.76665C4.31732 0.760254 4.37744 0.758335 4.43884 0.758335C5.36559 0.758335 5.94441 1.42414 6.17146 2.75638C6.2981 3.51621 6.40299 4.13404 6.48806 4.60861C6.57056 5.08446 6.63964 5.41576 6.69464 5.60444C7.001 6.86441 7.33102 7.49759 7.68599 7.50271C7.95845 7.50271 8.37802 7.0921 8.94469 6.27088C9.49856 5.42727 9.79661 4.8024 9.83498 4.39563C9.84713 4.31312 9.85161 4.23573 9.85161 4.1641C9.85161 3.61342 9.54845 3.33904 8.94469 3.33904C8.63833 3.33904 8.3115 3.40428 7.96165 3.53028C8.58844 1.5981 9.79341 0.630419 11.5753 0.624023C11.6252 0.624023 11.6744 0.624023 11.7249 0.624023Z" fill="#424242"/>
</svg>
