<svg width="16" height="12" viewBox="0 0 16 12" fill="none" xmlns="http://www.w3.org/2000/svg">
<path d="M15.1831 2.25081C15.0103 1.6082 14.5036 1.10164 13.8611 0.928604C12.6873 0.607437 7.992 0.607437 7.992 0.607437C7.992 0.607437 3.29691 0.607437 2.12311 0.916428C1.49295 1.08928 0.973938 1.60829 0.801086 2.25081C0.492188 3.42451 0.492188 5.85863 0.492188 5.85863C0.492188 5.85863 0.492188 8.30501 0.801086 9.46644C0.974121 10.109 1.48059 10.6155 2.1232 10.7886C3.30926 11.1098 7.99219 11.1098 7.99219 11.1098C7.99219 11.1098 12.6873 11.1098 13.8611 10.8008C14.5037 10.6279 15.0103 10.1213 15.1833 9.4788C15.4921 8.30501 15.4921 5.87099 15.4921 5.87099C15.4921 5.87099 15.5045 3.42451 15.1831 2.25081V2.25081ZM6.49713 8.10734V3.60991L10.4015 5.85863L6.49713 8.10734Z" fill="#424242"/>
</svg>
