<svg xmlns="http://www.w3.org/2000/svg" width="250px" height="250px" viewBox="0 0 16 16">
 <path fill="#A5ACB9" d="M6.34 14.03c0,0.69 0,0.69 0,0.69 0,0 0,0 -0.71,0 -0.7,0 -2.12,0 -2.83,0 -0.7,0 -0.7,0 -0.7,0 0,0 0,0 0,-1.05 0.01,-1.04 0.02,-3.13 0.02,-4.18 0.01,-1.04 0.01,-1.04 0.01,-1.04 0,0 0,0 0.97,-0.81 0.98,-0.8 2.92,-2.42 3.9,-3.22 0.97,-0.81 0.97,-0.81 0.97,-0.81 0,0 0,0 0.99,0.81 0.99,0.8 2.96,2.42 3.95,3.22 0.98,0.81 0.98,0.81 0.98,0.81 0,0 0,0 0,1.04 0,1.04 0,3.13 0,4.17 0,1.05 0,1.05 0,1.05 0,0 0,0 -0.71,0 -0.71,0 -2.13,0 -2.84,0 -0.71,0.01 -0.71,0.01 -0.71,0.01 0,0 0,0 0,-0.7 0,-0.69 0,-2.08 0.01,-2.78 0,-0.7 0,-0.7 0,-0.7 0,0 0,0 -0.55,0.01 -0.55,0 -1.64,0.01 -2.19,0.01 -0.55,0.01 -0.55,0.01 -0.55,0.01 0,0 0,0 0,0.69 0,0.69 -0.01,2.07 -0.01,2.77z"/>
<path fill="#1E3050" d="M3.1 7.64c-0.97,0.81 -0.97,0.81 -0.97,0.81 0,0 0,0 -0.28,0 -0.28,0 -0.85,0 -1.13,0 -0.28,0 -0.28,0 -0.28,0 0,0 0,0 0,-0.15 0,-0.14 0,-0.43 0,-0.57 0,-0.14 0,-0.14 0,-0.14 0,0 0,0 1.26,-1.06 1.26,-1.05 3.77,-3.15 5.03,-4.2 1.26,-1.05 1.26,-1.05 1.26,-1.05 0,0 0,0 1.26,1.05 1.26,1.05 3.79,3.14 5.05,4.19 1.26,1.05 1.26,1.05 1.26,1.05 0,0 0,0 0,0.15 0,0.14 0,0.44 0,0.59 0,0.14 0,0.14 0,0.14 0,0 0,0 -0.27,0 -0.28,0 -0.84,0 -1.12,0 -0.28,0 -0.28,0 -0.28,0 0,0 0,0 -0.98,-0.81 -0.99,-0.8 -2.96,-2.42 -3.95,-3.22 -0.99,-0.81 -0.99,-0.81 -0.99,-0.81 0,0 0,0 -0.97,0.81 -0.98,0.8 -2.92,2.42 -3.9,3.22z"/>
</svg>