<svg xmlns="http://www.w3.org/2000/svg" width="250px" height="250px" viewBox="0 0 16 16"><ellipse fill="#A5ACB9" cx="8" cy="8" rx="7.72" ry="7.63"/>
   <path fill="#1E3050" d="M4.86 8.97c1.59,0 4.76,-0.01 6.35,-0.01 1.58,0 1.58,0 1.58,0 0,0 0,0 -0.01,0.1 -0.01,0.11 -0.04,0.32 -0.1,0.57 -0.07,0.24 -0.17,0.52 -0.29,0.79 -0.13,0.28 -0.27,0.56 -0.42,0.8 -0.16,0.25 -0.32,0.46 -0.51,0.66 -0.2,0.19 -0.42,0.36 -0.64,0.52 -0.22,0.15 -0.43,0.29 -0.68,0.42 -0.25,0.12 -0.54,0.23 -0.83,0.3 -0.29,0.08 -0.59,0.13 -0.86,0.16 -0.26,0.02 -0.49,0.03 -0.76,0 -0.26,-0.03 -0.56,-0.08 -0.82,-0.15 -0.25,-0.07 -0.45,-0.14 -0.65,-0.22 -0.2,-0.08 -0.4,-0.17 -0.64,-0.32 -0.24,-0.15 -0.53,-0.36 -0.77,-0.57 -0.24,-0.21 -0.43,-0.42 -0.61,-0.66 -0.18,-0.25 -0.35,-0.54 -0.48,-0.79 -0.12,-0.26 -0.2,-0.49 -0.27,-0.7 -0.06,-0.21 -0.11,-0.4 -0.14,-0.55 -0.03,-0.14 -0.03,-0.25 -0.03,-0.3 -0.01,-0.05 -0.01,-0.05 -0.01,-0.05 0,0 0,0 1.59,0z"/>
   <path fill="white" d="M2.67 7.02c0,0 0,0 0,-0.22 0,-0.22 0.01,-0.66 0.03,-0.96 0.02,-0.31 0.06,-0.47 0.11,-0.62 0.04,-0.15 0.1,-0.29 0.17,-0.42 0.08,-0.13 0.18,-0.25 0.3,-0.36 0.13,-0.12 0.28,-0.23 0.44,-0.32 0.17,-0.08 0.34,-0.14 0.51,-0.18 0.17,-0.04 0.34,-0.06 0.52,-0.05 0.17,0.01 0.36,0.05 0.53,0.11 0.17,0.06 0.33,0.14 0.46,0.23 0.14,0.08 0.24,0.17 0.34,0.28 0.1,0.11 0.2,0.24 0.27,0.37 0.07,0.12 0.12,0.24 0.15,0.35 0.03,0.12 0.05,0.23 0.06,0.53 0.01,0.3 0.01,0.78 0.01,1.02 -0.01,0.25 -0.01,0.25 -0.01,0.25 0,0 0,0 -0.65,0 -0.65,0 -1.94,0 -2.59,0 -0.65,0 -0.65,-0.01 -0.65,-0.01z"/>
   <path fill="white" d="M8.48 7.03c0,0 0,0 0,-0.21 0.01,-0.22 0.01,-0.65 0.04,-0.95 0.02,-0.3 0.06,-0.46 0.12,-0.61 0.05,-0.16 0.11,-0.29 0.2,-0.42 0.08,-0.13 0.19,-0.25 0.33,-0.37 0.14,-0.12 0.3,-0.25 0.49,-0.34 0.18,-0.09 0.38,-0.16 0.58,-0.19 0.2,-0.04 0.4,-0.05 0.59,-0.03 0.2,0.01 0.4,0.06 0.58,0.12 0.19,0.07 0.37,0.15 0.52,0.24 0.15,0.09 0.26,0.19 0.36,0.29 0.1,0.1 0.19,0.22 0.28,0.39 0.08,0.18 0.18,0.41 0.22,0.77 0.04,0.35 0.04,0.83 0.04,1.07 0,0.24 0,0.24 0,0.24 0,0 0,0 -0.73,0 -0.72,0 -2.17,0 -2.89,0 -0.73,0 -0.73,0 -0.73,0z"/>
   <path fill="#1E3050" d="M4.97 3.92c-0.03,0 -0.03,0 -0.07,0.05 -0.03,0.04 -0.1,0.14 -0.15,0.23 -0.05,0.1 -0.07,0.2 -0.08,0.32 -0.01,0.11 -0.01,0.23 0.02,0.34 0.02,0.12 0.07,0.23 0.14,0.32 0.07,0.1 0.15,0.17 0.25,0.23 0.09,0.05 0.19,0.09 0.29,0.11 0.11,0.03 0.22,0.03 0.34,0.01 0.12,-0.01 0.24,-0.05 0.34,-0.1 0.1,-0.05 0.19,-0.11 0.25,-0.17 0.06,-0.06 0.11,-0.11 0.13,-0.14 0.02,-0.03 0.02,-0.03 0.02,-0.03 0,0 0,0 -0.02,-0.04 -0.01,-0.03 -0.04,-0.1 -0.08,-0.17 -0.04,-0.06 -0.08,-0.13 -0.12,-0.18 -0.03,-0.05 -0.06,-0.09 -0.1,-0.13 -0.03,-0.04 -0.07,-0.08 -0.12,-0.12 -0.04,-0.05 -0.09,-0.09 -0.14,-0.13 -0.06,-0.04 -0.11,-0.08 -0.17,-0.11 -0.06,-0.04 -0.12,-0.07 -0.18,-0.1 -0.06,-0.03 -0.11,-0.06 -0.16,-0.08 -0.05,-0.02 -0.09,-0.03 -0.14,-0.05 -0.04,-0.01 -0.09,-0.03 -0.14,-0.04 -0.04,-0.01 -0.09,-0.02 -0.11,-0.02z"/>
   <path fill="#1E3050" d="M12.65 5.15c0.01,0.01 0.01,0.01 0.01,0.01 0,0 0,0 -0.03,0.03 -0.04,0.04 -0.1,0.11 -0.16,0.15 -0.06,0.05 -0.12,0.08 -0.18,0.11 -0.07,0.03 -0.14,0.06 -0.23,0.08 -0.08,0.01 -0.18,0.01 -0.26,0.01 -0.09,-0.01 -0.16,-0.01 -0.23,-0.03 -0.07,-0.02 -0.13,-0.05 -0.19,-0.08 -0.07,-0.04 -0.13,-0.08 -0.19,-0.13 -0.06,-0.06 -0.1,-0.11 -0.14,-0.18 -0.04,-0.06 -0.06,-0.12 -0.08,-0.2 -0.02,-0.07 -0.04,-0.16 -0.04,-0.25 0,-0.09 0.01,-0.18 0.02,-0.26 0.02,-0.08 0.04,-0.15 0.06,-0.21 0.03,-0.06 0.05,-0.11 0.08,-0.15 0.02,-0.04 0.04,-0.06 0.05,-0.08 0.01,-0.01 0.01,-0.01 0.01,-0.01 0,0 0,0 0.02,0 0.02,0.01 0.06,0.02 0.11,0.03 0.05,0.02 0.12,0.04 0.18,0.06 0.07,0.03 0.14,0.06 0.21,0.09 0.06,0.03 0.12,0.05 0.18,0.09 0.05,0.03 0.12,0.07 0.17,0.11 0.06,0.04 0.11,0.07 0.15,0.11 0.04,0.04 0.08,0.07 0.12,0.12 0.04,0.04 0.09,0.09 0.12,0.14 0.04,0.05 0.07,0.09 0.1,0.14 0.02,0.04 0.05,0.09 0.07,0.13 0.02,0.04 0.03,0.08 0.05,0.1 0.01,0.03 0.02,0.06 0.02,0.07z"/>
   <path fill="#FEFEFE" d="M8.05 13.3c-0.04,0 -0.04,0 -0.04,0 0,0 0,0 0.01,-0.08 0,-0.08 0.01,-0.23 0.04,-0.41 0.04,-0.17 0.1,-0.35 0.18,-0.53 0.08,-0.18 0.18,-0.35 0.31,-0.51 0.13,-0.16 0.28,-0.31 0.47,-0.44 0.19,-0.13 0.43,-0.24 0.67,-0.32 0.24,-0.08 0.48,-0.13 0.73,-0.14 0.24,0 0.49,0.03 0.69,0.09 0.2,0.05 0.35,0.12 0.47,0.18 0.12,0.07 0.22,0.12 0.27,0.15 0.05,0.03 0.05,0.03 0.05,0.03 0,0 0,0 -0.03,0.05 -0.03,0.05 -0.1,0.15 -0.17,0.25 -0.07,0.09 -0.15,0.18 -0.23,0.26 -0.08,0.08 -0.16,0.15 -0.25,0.23 -0.09,0.07 -0.19,0.15 -0.29,0.23 -0.1,0.07 -0.21,0.15 -0.33,0.22 -0.11,0.07 -0.22,0.14 -0.35,0.21 -0.13,0.06 -0.28,0.13 -0.43,0.19 -0.14,0.06 -0.28,0.11 -0.43,0.15 -0.14,0.04 -0.28,0.07 -0.41,0.1 -0.13,0.02 -0.24,0.04 -0.36,0.06 -0.12,0.01 -0.25,0.02 -0.35,0.03 -0.1,0 -0.18,0 -0.22,0z"/></svg>