<svg width="16" height="18" viewBox="0 0 16 18" fill="none" xmlns="http://www.w3.org/2000/svg">
<path d="M0.164062 13.5723C0.164062 13.2956 0.244303 13.0272 0.404785 12.7671C0.565267 12.507 0.764486 12.2524 1.00244 12.0034C1.24593 11.7544 1.48665 11.5054 1.72461 11.2563C1.90723 11.0682 2.04834 10.8219 2.14795 10.5176C2.25309 10.2132 2.33057 9.88949 2.38037 9.54639C2.43018 9.20329 2.46615 8.87126 2.48828 8.55029C2.50488 7.46012 2.61833 6.50277 2.82861 5.67822C3.0389 4.84814 3.36816 4.15641 3.81641 3.60303C4.27018 3.04964 4.86507 2.64014 5.60107 2.37451C5.73942 1.83219 6.01888 1.37288 6.43945 0.996582C6.86556 0.62028 7.38298 0.432129 7.9917 0.432129C8.60596 0.432129 9.12337 0.62028 9.54395 0.996582C9.97005 1.37288 10.2523 1.83219 10.3906 2.37451C11.1266 2.64014 11.7188 3.04964 12.167 3.60303C12.6152 4.15641 12.9445 4.84814 13.1548 5.67822C13.3706 6.50277 13.4868 7.46012 13.5034 8.55029C13.5256 8.87126 13.5615 9.20329 13.6113 9.54639C13.6611 9.88949 13.7358 10.2132 13.8354 10.5176C13.9406 10.8219 14.0845 11.0682 14.2671 11.2563C14.505 11.5054 14.743 11.7544 14.981 12.0034C15.2244 12.2524 15.4264 12.507 15.5869 12.7671C15.7474 13.0272 15.8276 13.2956 15.8276 13.5723C15.8276 13.8766 15.717 14.1201 15.4956 14.3027C15.2743 14.4854 14.9671 14.5767 14.5742 14.5767H11.0713C11.0492 15.1134 10.9025 15.6087 10.6313 16.0625C10.3657 16.5218 10.006 16.8898 9.55225 17.1665C9.09847 17.4432 8.57829 17.5815 7.9917 17.5815C7.41064 17.5815 6.89323 17.4404 6.43945 17.1582C5.98568 16.8815 5.62321 16.5163 5.35205 16.0625C5.08643 15.6087 4.94255 15.1134 4.92041 14.5767H1.41748C1.02458 14.5767 0.717448 14.4854 0.496094 14.3027C0.27474 14.1201 0.164062 13.8766 0.164062 13.5723ZM1.77441 13.3232H14.209V13.2236C14.1592 13.1462 14.0762 13.0438 13.96 12.9165C13.8493 12.7837 13.7192 12.6398 13.5698 12.4849C13.4259 12.3299 13.2793 12.1722 13.1299 12.0117C12.9805 11.8457 12.8504 11.6548 12.7397 11.439C12.6291 11.2176 12.535 10.9686 12.4575 10.6919C12.3856 10.4152 12.3247 10.1081 12.2749 9.77051C12.2306 9.43294 12.2002 9.06217 12.1836 8.6582C12.1615 7.45182 12.0342 6.49447 11.8018 5.78613C11.5749 5.0778 11.2705 4.55208 10.8887 4.20898C10.5124 3.86035 10.0863 3.61963 9.61035 3.48682C9.51074 3.46468 9.4305 3.42594 9.36963 3.37061C9.31429 3.30973 9.28662 3.22673 9.28662 3.12158C9.27002 2.68994 9.14551 2.33854 8.91309 2.06738C8.6862 1.79069 8.37907 1.65234 7.9917 1.65234C7.60986 1.65234 7.30273 1.79069 7.07031 2.06738C6.84342 2.33854 6.72168 2.68994 6.70508 3.12158C6.69954 3.22673 6.66911 3.30973 6.61377 3.37061C6.55843 3.42594 6.47819 3.46468 6.37305 3.48682C5.89714 3.61963 5.46826 3.86035 5.08643 4.20898C4.71012 4.55208 4.40853 5.0778 4.18164 5.78613C3.95475 6.49447 3.83024 7.45182 3.80811 8.6582C3.78597 9.06217 3.75277 9.43294 3.7085 9.77051C3.66423 10.1081 3.60335 10.4152 3.52588 10.6919C3.4484 10.9686 3.35433 11.2176 3.24365 11.439C3.13298 11.6548 3.00293 11.8457 2.85352 12.0117C2.70964 12.1722 2.56299 12.3299 2.41357 12.4849C2.26969 12.6398 2.13965 12.7837 2.02344 12.9165C1.90723 13.0438 1.82422 13.1462 1.77441 13.2236V13.3232ZM6.21533 14.5767C6.243 15.1411 6.42008 15.5866 6.74658 15.9131C7.07861 16.2451 7.49365 16.4111 7.9917 16.4111C8.49528 16.4111 8.91032 16.2451 9.23682 15.9131C9.56331 15.5866 9.74316 15.1411 9.77637 14.5767H6.21533Z" fill="black" fill-opacity="0.5"/>
</svg>
