<svg width="9" height="6" viewBox="0 0 9 6" fill="none" xmlns="http://www.w3.org/2000/svg">
<path d="M4.50439 5.354C4.29346 5.354 4.1001 5.26758 3.92432 5.09473L0.672363 1.76807C0.60791 1.70068 0.558105 1.62744 0.522949 1.54834C0.490723 1.46631 0.474609 1.37842 0.474609 1.28467C0.474609 1.15283 0.505371 1.03418 0.566895 0.928711C0.631348 0.820312 0.716309 0.735352 0.821777 0.673828C0.927246 0.609375 1.04443 0.577148 1.17334 0.577148C1.36963 0.577148 1.54248 0.651855 1.69189 0.80127L4.68457 3.88184H4.32861L7.3125 0.80127C7.46191 0.651855 7.6333 0.577148 7.82666 0.577148C7.95557 0.577148 8.07275 0.609375 8.17822 0.673828C8.28369 0.735352 8.36719 0.820312 8.42871 0.928711C8.49316 1.03418 8.52539 1.15283 8.52539 1.28467C8.52539 1.4751 8.45947 1.63623 8.32764 1.76807L5.08008 5.09473C4.99219 5.18262 4.90137 5.24707 4.80762 5.28809C4.71387 5.3291 4.61279 5.35107 4.50439 5.354Z" fill="black" fill-opacity="0.5"/>
</svg>
