<svg width="7" height="11" viewBox="0 0 7 11" fill="none" xmlns="http://www.w3.org/2000/svg">
<path d="M6.03418 5.62207C6.03418 5.72949 6.0127 5.83154 5.96973 5.92822C5.93034 6.02132 5.86589 6.11084 5.77637 6.19678L1.646 10.2412C1.50635 10.3773 1.33626 10.4453 1.13574 10.4453C1.00684 10.4453 0.886882 10.4131 0.775879 10.3486C0.664876 10.2842 0.575358 10.1982 0.507324 10.0908C0.442871 9.9834 0.410645 9.86165 0.410645 9.72559C0.410645 9.52865 0.48584 9.35319 0.63623 9.19922L4.31543 5.62207L0.63623 2.04492C0.48584 1.89453 0.410645 1.71908 0.410645 1.51855C0.410645 1.38607 0.442871 1.26611 0.507324 1.15869C0.575358 1.04769 0.664876 0.959961 0.775879 0.895508C0.886882 0.831055 1.00684 0.798828 1.13574 0.798828C1.33626 0.798828 1.50635 0.866862 1.646 1.00293L5.77637 5.04736C5.8623 5.1333 5.92676 5.22282 5.96973 5.31592C6.0127 5.40902 6.03418 5.51107 6.03418 5.62207Z" fill="black" fill-opacity="0.25"/>
</svg>
