<svg width="16" height="13" viewBox="0 0 16 13" fill="none" xmlns="http://www.w3.org/2000/svg">
<path d="M2.78223 12.187C2.11784 12.187 1.61849 12.022 1.28418 11.6919C0.954102 11.366 0.789062 10.8752 0.789062 10.2192V2.48145C0.789062 1.84245 0.941406 1.36426 1.24609 1.04688C1.55078 0.729492 1.98242 0.570801 2.54102 0.570801H4.3501C4.55745 0.570801 4.7373 0.585612 4.88965 0.615234C5.04622 0.644857 5.18799 0.693522 5.31494 0.76123C5.44613 0.828939 5.58154 0.922038 5.72119 1.04053L6.1084 1.35791C6.26921 1.49333 6.42367 1.59066 6.57178 1.6499C6.71989 1.70492 6.90186 1.73242 7.11768 1.73242H13.2114C13.8716 1.73242 14.3688 1.89746 14.7031 2.22754C15.0374 2.55762 15.2046 3.0485 15.2046 3.7002V10.2192C15.2046 10.8752 15.0459 11.366 14.7285 11.6919C14.4111 12.022 13.9689 12.187 13.4019 12.187H2.78223ZM2.79492 11.165H13.1924C13.5055 11.165 13.7489 11.0825 13.9224 10.9175C14.0959 10.7482 14.1826 10.5007 14.1826 10.1748V3.75732C14.1826 3.42725 14.0959 3.17757 13.9224 3.0083C13.7489 2.83903 13.5055 2.75439 13.1924 2.75439H6.85107C6.64372 2.75439 6.46175 2.73958 6.30518 2.70996C6.1486 2.68034 6.00472 2.63167 5.87354 2.56396C5.74235 2.49626 5.60905 2.40527 5.47363 2.29102L5.08643 1.96729C4.92562 1.83187 4.77116 1.73454 4.62305 1.67529C4.47917 1.61605 4.30143 1.58643 4.08984 1.58643H2.75049C2.4458 1.58643 2.21305 1.66683 2.05225 1.82764C1.89144 1.98844 1.81104 2.22542 1.81104 2.53857V10.1685C1.81104 10.4985 1.89567 10.7482 2.06494 10.9175C2.23421 11.0825 2.47754 11.165 2.79492 11.165ZM1.41113 5.07764V4.11914H14.5762V5.07764H1.41113Z" fill="#F5234B" style="mix-blend-mode:multiply"/>
<path d="M2.78223 12.187C2.11784 12.187 1.61849 12.022 1.28418 11.6919C0.954102 11.366 0.789062 10.8752 0.789062 10.2192V2.48145C0.789062 1.84245 0.941406 1.36426 1.24609 1.04688C1.55078 0.729492 1.98242 0.570801 2.54102 0.570801H4.3501C4.55745 0.570801 4.7373 0.585612 4.88965 0.615234C5.04622 0.644857 5.18799 0.693522 5.31494 0.76123C5.44613 0.828939 5.58154 0.922038 5.72119 1.04053L6.1084 1.35791C6.26921 1.49333 6.42367 1.59066 6.57178 1.6499C6.71989 1.70492 6.90186 1.73242 7.11768 1.73242H13.2114C13.8716 1.73242 14.3688 1.89746 14.7031 2.22754C15.0374 2.55762 15.2046 3.0485 15.2046 3.7002V10.2192C15.2046 10.8752 15.0459 11.366 14.7285 11.6919C14.4111 12.022 13.9689 12.187 13.4019 12.187H2.78223ZM2.79492 11.165H13.1924C13.5055 11.165 13.7489 11.0825 13.9224 10.9175C14.0959 10.7482 14.1826 10.5007 14.1826 10.1748V3.75732C14.1826 3.42725 14.0959 3.17757 13.9224 3.0083C13.7489 2.83903 13.5055 2.75439 13.1924 2.75439H6.85107C6.64372 2.75439 6.46175 2.73958 6.30518 2.70996C6.1486 2.68034 6.00472 2.63167 5.87354 2.56396C5.74235 2.49626 5.60905 2.40527 5.47363 2.29102L5.08643 1.96729C4.92562 1.83187 4.77116 1.73454 4.62305 1.67529C4.47917 1.61605 4.30143 1.58643 4.08984 1.58643H2.75049C2.4458 1.58643 2.21305 1.66683 2.05225 1.82764C1.89144 1.98844 1.81104 2.22542 1.81104 2.53857V10.1685C1.81104 10.4985 1.89567 10.7482 2.06494 10.9175C2.23421 11.0825 2.47754 11.165 2.79492 11.165ZM1.41113 5.07764V4.11914H14.5762V5.07764H1.41113Z" fill="#F5234B" fill-opacity="0.4" style="mix-blend-mode:multiply"/>
</svg>
