<svg width="14" height="13" viewBox="0 0 14 13" fill="none" xmlns="http://www.w3.org/2000/svg">
<path d="M3.50879 5.91553C2.99674 5.91553 2.53125 5.79069 2.1123 5.54102C1.69759 5.29134 1.3654 4.95915 1.11572 4.54443C0.866048 4.12549 0.741211 3.65999 0.741211 3.14795C0.741211 2.64014 0.866048 2.17676 1.11572 1.75781C1.3654 1.33887 1.69759 1.00456 2.1123 0.754883C2.53125 0.505208 2.99674 0.380371 3.50879 0.380371C4.0166 0.380371 4.47998 0.505208 4.89893 0.754883C5.31787 1.00456 5.65218 1.33887 5.90186 1.75781C6.15153 2.17676 6.27637 2.64014 6.27637 3.14795C6.27637 3.65999 6.15153 4.12549 5.90186 4.54443C5.65218 4.95915 5.31787 5.29134 4.89893 5.54102C4.47998 5.79069 4.0166 5.91553 3.50879 5.91553ZM3.50879 4.92529C3.83464 4.92529 4.13298 4.84701 4.40381 4.69043C4.67464 4.52962 4.88835 4.3138 5.04492 4.04297C5.20573 3.77214 5.28613 3.4738 5.28613 3.14795C5.28613 2.8221 5.20573 2.52376 5.04492 2.25293C4.88835 1.9821 4.67464 1.76839 4.40381 1.61182C4.13298 1.45101 3.83464 1.37061 3.50879 1.37061C3.18294 1.37061 2.8846 1.45101 2.61377 1.61182C2.34294 1.76839 2.12712 1.9821 1.96631 2.25293C1.80973 2.52376 1.73145 2.8221 1.73145 3.14795C1.73145 3.4738 1.80973 3.77214 1.96631 4.04297C2.12712 4.3138 2.34294 4.52962 2.61377 4.69043C2.8846 4.84701 3.18294 4.92529 3.50879 4.92529ZM10.4912 5.91553C9.9834 5.91553 9.52002 5.79069 9.10107 5.54102C8.68213 5.29134 8.34782 4.95915 8.09814 4.54443C7.84847 4.12549 7.72363 3.65999 7.72363 3.14795C7.72363 2.64014 7.84847 2.17676 8.09814 1.75781C8.34782 1.33887 8.68213 1.00456 9.10107 0.754883C9.52002 0.505208 9.9834 0.380371 10.4912 0.380371C11.0033 0.380371 11.4688 0.505208 11.8877 0.754883C12.3066 1.00456 12.6388 1.33887 12.8843 1.75781C13.134 2.17676 13.2588 2.64014 13.2588 3.14795C13.2588 3.65999 13.134 4.12549 12.8843 4.54443C12.6388 4.95915 12.3066 5.29134 11.8877 5.54102C11.4688 5.79069 11.0033 5.91553 10.4912 5.91553ZM10.4912 4.92529C10.8213 4.92529 11.1196 4.84701 11.3862 4.69043C11.6571 4.52962 11.8708 4.3138 12.0273 4.04297C12.1882 3.77214 12.2686 3.4738 12.2686 3.14795C12.2686 2.8221 12.1882 2.52376 12.0273 2.25293C11.8708 1.9821 11.6571 1.76839 11.3862 1.61182C11.1196 1.45101 10.8213 1.37061 10.4912 1.37061C10.1654 1.37061 9.86702 1.45101 9.59619 1.61182C9.32959 1.76839 9.11589 1.9821 8.95508 2.25293C8.79427 2.52376 8.71387 2.8221 8.71387 3.14795C8.71387 3.4738 8.79427 3.77214 8.95508 4.04297C9.11589 4.3138 9.32959 4.52962 9.59619 4.69043C9.86702 4.84701 10.1654 4.92529 10.4912 4.92529ZM3.50879 12.4536C2.99674 12.4536 2.53125 12.3288 2.1123 12.0791C1.69759 11.8294 1.3654 11.4951 1.11572 11.0762C0.866048 10.6572 0.741211 10.1938 0.741211 9.68604C0.741211 9.17399 0.866048 8.7085 1.11572 8.28955C1.3654 7.87061 1.69759 7.53841 2.1123 7.29297C2.53125 7.04329 2.99674 6.91846 3.50879 6.91846C4.0166 6.91846 4.47998 7.04329 4.89893 7.29297C5.31787 7.53841 5.65218 7.87061 5.90186 8.28955C6.15153 8.7085 6.27637 9.17399 6.27637 9.68604C6.27637 10.1938 6.15153 10.6572 5.90186 11.0762C5.65218 11.4951 5.31787 11.8294 4.89893 12.0791C4.47998 12.3288 4.0166 12.4536 3.50879 12.4536ZM3.50879 11.4634C3.83464 11.4634 4.13298 11.383 4.40381 11.2222C4.67464 11.0614 4.88835 10.8477 5.04492 10.5811C5.20573 10.3102 5.28613 10.0119 5.28613 9.68604C5.28613 9.35596 5.20573 9.05762 5.04492 8.79102C4.88835 8.52018 4.67464 8.30648 4.40381 8.1499C4.13298 7.9891 3.83464 7.90869 3.50879 7.90869C3.18294 7.90869 2.8846 7.9891 2.61377 8.1499C2.34294 8.30648 2.12712 8.52018 1.96631 8.79102C1.80973 9.05762 1.73145 9.35596 1.73145 9.68604C1.73145 10.0119 1.80973 10.3102 1.96631 10.5811C2.12712 10.8477 2.34294 11.0614 2.61377 11.2222C2.8846 11.383 3.18294 11.4634 3.50879 11.4634ZM10.4912 12.4536C9.9834 12.4536 9.52002 12.3288 9.10107 12.0791C8.68213 11.8294 8.34782 11.4951 8.09814 11.0762C7.84847 10.6572 7.72363 10.1938 7.72363 9.68604C7.72363 9.17399 7.84847 8.7085 8.09814 8.28955C8.34782 7.87061 8.68213 7.53841 9.10107 7.29297C9.52002 7.04329 9.9834 6.91846 10.4912 6.91846C11.0033 6.91846 11.4688 7.04329 11.8877 7.29297C12.3066 7.53841 12.6388 7.87061 12.8843 8.28955C13.134 8.7085 13.2588 9.17399 13.2588 9.68604C13.2588 10.1938 13.134 10.6572 12.8843 11.0762C12.6388 11.4951 12.3066 11.8294 11.8877 12.0791C11.4688 12.3288 11.0033 12.4536 10.4912 12.4536ZM10.4912 11.4634C10.8213 11.4634 11.1196 11.383 11.3862 11.2222C11.6571 11.0614 11.8708 10.8477 12.0273 10.5811C12.1882 10.3102 12.2686 10.0119 12.2686 9.68604C12.2686 9.35596 12.1882 9.05762 12.0273 8.79102C11.8708 8.52018 11.6571 8.30648 11.3862 8.1499C11.1196 7.9891 10.8213 7.90869 10.4912 7.90869C10.1654 7.90869 9.86702 7.9891 9.59619 8.1499C9.32959 8.30648 9.11589 8.52018 8.95508 8.79102C8.79427 9.05762 8.71387 9.35596 8.71387 9.68604C8.71387 10.0119 8.79427 10.3102 8.95508 10.5811C9.11589 10.8477 9.32959 11.0614 9.59619 11.2222C9.86702 11.383 10.1654 11.4634 10.4912 11.4634Z" fill="#F5234B" style="mix-blend-mode:multiply"/>
<path d="M3.50879 5.91553C2.99674 5.91553 2.53125 5.79069 2.1123 5.54102C1.69759 5.29134 1.3654 4.95915 1.11572 4.54443C0.866048 4.12549 0.741211 3.65999 0.741211 3.14795C0.741211 2.64014 0.866048 2.17676 1.11572 1.75781C1.3654 1.33887 1.69759 1.00456 2.1123 0.754883C2.53125 0.505208 2.99674 0.380371 3.50879 0.380371C4.0166 0.380371 4.47998 0.505208 4.89893 0.754883C5.31787 1.00456 5.65218 1.33887 5.90186 1.75781C6.15153 2.17676 6.27637 2.64014 6.27637 3.14795C6.27637 3.65999 6.15153 4.12549 5.90186 4.54443C5.65218 4.95915 5.31787 5.29134 4.89893 5.54102C4.47998 5.79069 4.0166 5.91553 3.50879 5.91553ZM3.50879 4.92529C3.83464 4.92529 4.13298 4.84701 4.40381 4.69043C4.67464 4.52962 4.88835 4.3138 5.04492 4.04297C5.20573 3.77214 5.28613 3.4738 5.28613 3.14795C5.28613 2.8221 5.20573 2.52376 5.04492 2.25293C4.88835 1.9821 4.67464 1.76839 4.40381 1.61182C4.13298 1.45101 3.83464 1.37061 3.50879 1.37061C3.18294 1.37061 2.8846 1.45101 2.61377 1.61182C2.34294 1.76839 2.12712 1.9821 1.96631 2.25293C1.80973 2.52376 1.73145 2.8221 1.73145 3.14795C1.73145 3.4738 1.80973 3.77214 1.96631 4.04297C2.12712 4.3138 2.34294 4.52962 2.61377 4.69043C2.8846 4.84701 3.18294 4.92529 3.50879 4.92529ZM10.4912 5.91553C9.9834 5.91553 9.52002 5.79069 9.10107 5.54102C8.68213 5.29134 8.34782 4.95915 8.09814 4.54443C7.84847 4.12549 7.72363 3.65999 7.72363 3.14795C7.72363 2.64014 7.84847 2.17676 8.09814 1.75781C8.34782 1.33887 8.68213 1.00456 9.10107 0.754883C9.52002 0.505208 9.9834 0.380371 10.4912 0.380371C11.0033 0.380371 11.4688 0.505208 11.8877 0.754883C12.3066 1.00456 12.6388 1.33887 12.8843 1.75781C13.134 2.17676 13.2588 2.64014 13.2588 3.14795C13.2588 3.65999 13.134 4.12549 12.8843 4.54443C12.6388 4.95915 12.3066 5.29134 11.8877 5.54102C11.4688 5.79069 11.0033 5.91553 10.4912 5.91553ZM10.4912 4.92529C10.8213 4.92529 11.1196 4.84701 11.3862 4.69043C11.6571 4.52962 11.8708 4.3138 12.0273 4.04297C12.1882 3.77214 12.2686 3.4738 12.2686 3.14795C12.2686 2.8221 12.1882 2.52376 12.0273 2.25293C11.8708 1.9821 11.6571 1.76839 11.3862 1.61182C11.1196 1.45101 10.8213 1.37061 10.4912 1.37061C10.1654 1.37061 9.86702 1.45101 9.59619 1.61182C9.32959 1.76839 9.11589 1.9821 8.95508 2.25293C8.79427 2.52376 8.71387 2.8221 8.71387 3.14795C8.71387 3.4738 8.79427 3.77214 8.95508 4.04297C9.11589 4.3138 9.32959 4.52962 9.59619 4.69043C9.86702 4.84701 10.1654 4.92529 10.4912 4.92529ZM3.50879 12.4536C2.99674 12.4536 2.53125 12.3288 2.1123 12.0791C1.69759 11.8294 1.3654 11.4951 1.11572 11.0762C0.866048 10.6572 0.741211 10.1938 0.741211 9.68604C0.741211 9.17399 0.866048 8.7085 1.11572 8.28955C1.3654 7.87061 1.69759 7.53841 2.1123 7.29297C2.53125 7.04329 2.99674 6.91846 3.50879 6.91846C4.0166 6.91846 4.47998 7.04329 4.89893 7.29297C5.31787 7.53841 5.65218 7.87061 5.90186 8.28955C6.15153 8.7085 6.27637 9.17399 6.27637 9.68604C6.27637 10.1938 6.15153 10.6572 5.90186 11.0762C5.65218 11.4951 5.31787 11.8294 4.89893 12.0791C4.47998 12.3288 4.0166 12.4536 3.50879 12.4536ZM3.50879 11.4634C3.83464 11.4634 4.13298 11.383 4.40381 11.2222C4.67464 11.0614 4.88835 10.8477 5.04492 10.5811C5.20573 10.3102 5.28613 10.0119 5.28613 9.68604C5.28613 9.35596 5.20573 9.05762 5.04492 8.79102C4.88835 8.52018 4.67464 8.30648 4.40381 8.1499C4.13298 7.9891 3.83464 7.90869 3.50879 7.90869C3.18294 7.90869 2.8846 7.9891 2.61377 8.1499C2.34294 8.30648 2.12712 8.52018 1.96631 8.79102C1.80973 9.05762 1.73145 9.35596 1.73145 9.68604C1.73145 10.0119 1.80973 10.3102 1.96631 10.5811C2.12712 10.8477 2.34294 11.0614 2.61377 11.2222C2.8846 11.383 3.18294 11.4634 3.50879 11.4634ZM10.4912 12.4536C9.9834 12.4536 9.52002 12.3288 9.10107 12.0791C8.68213 11.8294 8.34782 11.4951 8.09814 11.0762C7.84847 10.6572 7.72363 10.1938 7.72363 9.68604C7.72363 9.17399 7.84847 8.7085 8.09814 8.28955C8.34782 7.87061 8.68213 7.53841 9.10107 7.29297C9.52002 7.04329 9.9834 6.91846 10.4912 6.91846C11.0033 6.91846 11.4688 7.04329 11.8877 7.29297C12.3066 7.53841 12.6388 7.87061 12.8843 8.28955C13.134 8.7085 13.2588 9.17399 13.2588 9.68604C13.2588 10.1938 13.134 10.6572 12.8843 11.0762C12.6388 11.4951 12.3066 11.8294 11.8877 12.0791C11.4688 12.3288 11.0033 12.4536 10.4912 12.4536ZM10.4912 11.4634C10.8213 11.4634 11.1196 11.383 11.3862 11.2222C11.6571 11.0614 11.8708 10.8477 12.0273 10.5811C12.1882 10.3102 12.2686 10.0119 12.2686 9.68604C12.2686 9.35596 12.1882 9.05762 12.0273 8.79102C11.8708 8.52018 11.6571 8.30648 11.3862 8.1499C11.1196 7.9891 10.8213 7.90869 10.4912 7.90869C10.1654 7.90869 9.86702 7.9891 9.59619 8.1499C9.32959 8.30648 9.11589 8.52018 8.95508 8.79102C8.79427 9.05762 8.71387 9.35596 8.71387 9.68604C8.71387 10.0119 8.79427 10.3102 8.95508 10.5811C9.11589 10.8477 9.32959 11.0614 9.59619 11.2222C9.86702 11.383 10.1654 11.4634 10.4912 11.4634Z" fill="#F5234B" fill-opacity="0.4" style="mix-blend-mode:multiply"/>
</svg>
