<svg width="16" height="11" viewBox="0 0 16 11" fill="none" xmlns="http://www.w3.org/2000/svg">
<path d="M2.50928 10.8442C1.84489 10.8442 1.34554 10.6792 1.01123 10.3491C0.681152 10.0233 0.516113 9.53239 0.516113 8.87646V5.11865C0.516113 4.92822 0.526693 4.7653 0.547852 4.62988C0.56901 4.49023 0.60498 4.3654 0.655762 4.25537C0.710775 4.14111 0.784831 4.02686 0.87793 3.9126L3.07422 1.20215C3.31966 0.897461 3.5376 0.658366 3.72803 0.484863C3.91846 0.311361 4.12793 0.188639 4.35645 0.116699C4.58919 0.0447591 4.89388 0.00878906 5.27051 0.00878906H10.7295C11.1061 0.00878906 11.4108 0.0447591 11.6436 0.116699C11.8763 0.188639 12.0858 0.311361 12.272 0.484863C12.4624 0.658366 12.6825 0.897461 12.9321 1.20215L15.1221 3.9126C15.2152 4.02686 15.2871 4.14111 15.3379 4.25537C15.3929 4.3654 15.431 4.49023 15.4521 4.62988C15.4733 4.7653 15.4839 4.92822 15.4839 5.11865V8.87646C15.4839 9.53239 15.3188 10.0233 14.9888 10.3491C14.6587 10.6792 14.1593 10.8442 13.4907 10.8442H2.50928ZM1.85547 4.73779H6.03857C6.20361 4.73779 6.32633 4.79069 6.40674 4.89648C6.48714 5.00228 6.52734 5.12077 6.52734 5.25195V5.271C6.52734 5.51644 6.58659 5.75553 6.70508 5.98828C6.8278 6.22103 6.99919 6.41357 7.21924 6.56592C7.43929 6.71403 7.69954 6.78809 8 6.78809C8.30046 6.78809 8.56071 6.71403 8.78076 6.56592C9.00081 6.41357 9.1722 6.22103 9.29492 5.98828C9.41764 5.75553 9.479 5.51644 9.479 5.271V5.25195C9.479 5.12077 9.51709 5.00228 9.59326 4.89648C9.67367 4.79069 9.79639 4.73779 9.96143 4.73779H14.1509C14.2524 4.73779 14.3138 4.70182 14.335 4.62988C14.3604 4.55794 14.3477 4.48812 14.2969 4.42041L11.9355 1.44971C11.779 1.25081 11.6097 1.10905 11.4277 1.02441C11.2458 0.939779 11.0384 0.897461 10.8057 0.897461H5.19434C4.96582 0.897461 4.75846 0.939779 4.57227 1.02441C4.3903 1.10905 4.22103 1.25081 4.06445 1.44971L1.70947 4.42041C1.65446 4.48812 1.63753 4.55794 1.65869 4.62988C1.68408 4.70182 1.74967 4.73779 1.85547 4.73779ZM2.52197 9.82227H13.478C13.7912 9.82227 14.0324 9.73975 14.2017 9.57471C14.3752 9.40544 14.4619 9.15576 14.4619 8.82568V5.66455H10.4375C10.3867 6.05811 10.2492 6.41146 10.0249 6.72461C9.80485 7.03353 9.51921 7.27897 9.16797 7.46094C8.82096 7.63867 8.43164 7.72754 8 7.72754C7.57259 7.72754 7.18327 7.63867 6.83203 7.46094C6.48503 7.2832 6.19938 7.03988 5.9751 6.73096C5.75081 6.41781 5.61328 6.06234 5.5625 5.66455H1.53809V8.82568C1.53809 9.15576 1.62272 9.40544 1.79199 9.57471C1.96126 9.73975 2.20459 9.82227 2.52197 9.82227Z" fill="#F5234B" style="mix-blend-mode:multiply"/>
<path d="M2.50928 10.8442C1.84489 10.8442 1.34554 10.6792 1.01123 10.3491C0.681152 10.0233 0.516113 9.53239 0.516113 8.87646V5.11865C0.516113 4.92822 0.526693 4.7653 0.547852 4.62988C0.56901 4.49023 0.60498 4.3654 0.655762 4.25537C0.710775 4.14111 0.784831 4.02686 0.87793 3.9126L3.07422 1.20215C3.31966 0.897461 3.5376 0.658366 3.72803 0.484863C3.91846 0.311361 4.12793 0.188639 4.35645 0.116699C4.58919 0.0447591 4.89388 0.00878906 5.27051 0.00878906H10.7295C11.1061 0.00878906 11.4108 0.0447591 11.6436 0.116699C11.8763 0.188639 12.0858 0.311361 12.272 0.484863C12.4624 0.658366 12.6825 0.897461 12.9321 1.20215L15.1221 3.9126C15.2152 4.02686 15.2871 4.14111 15.3379 4.25537C15.3929 4.3654 15.431 4.49023 15.4521 4.62988C15.4733 4.7653 15.4839 4.92822 15.4839 5.11865V8.87646C15.4839 9.53239 15.3188 10.0233 14.9888 10.3491C14.6587 10.6792 14.1593 10.8442 13.4907 10.8442H2.50928ZM1.85547 4.73779H6.03857C6.20361 4.73779 6.32633 4.79069 6.40674 4.89648C6.48714 5.00228 6.52734 5.12077 6.52734 5.25195V5.271C6.52734 5.51644 6.58659 5.75553 6.70508 5.98828C6.8278 6.22103 6.99919 6.41357 7.21924 6.56592C7.43929 6.71403 7.69954 6.78809 8 6.78809C8.30046 6.78809 8.56071 6.71403 8.78076 6.56592C9.00081 6.41357 9.1722 6.22103 9.29492 5.98828C9.41764 5.75553 9.479 5.51644 9.479 5.271V5.25195C9.479 5.12077 9.51709 5.00228 9.59326 4.89648C9.67367 4.79069 9.79639 4.73779 9.96143 4.73779H14.1509C14.2524 4.73779 14.3138 4.70182 14.335 4.62988C14.3604 4.55794 14.3477 4.48812 14.2969 4.42041L11.9355 1.44971C11.779 1.25081 11.6097 1.10905 11.4277 1.02441C11.2458 0.939779 11.0384 0.897461 10.8057 0.897461H5.19434C4.96582 0.897461 4.75846 0.939779 4.57227 1.02441C4.3903 1.10905 4.22103 1.25081 4.06445 1.44971L1.70947 4.42041C1.65446 4.48812 1.63753 4.55794 1.65869 4.62988C1.68408 4.70182 1.74967 4.73779 1.85547 4.73779ZM2.52197 9.82227H13.478C13.7912 9.82227 14.0324 9.73975 14.2017 9.57471C14.3752 9.40544 14.4619 9.15576 14.4619 8.82568V5.66455H10.4375C10.3867 6.05811 10.2492 6.41146 10.0249 6.72461C9.80485 7.03353 9.51921 7.27897 9.16797 7.46094C8.82096 7.63867 8.43164 7.72754 8 7.72754C7.57259 7.72754 7.18327 7.63867 6.83203 7.46094C6.48503 7.2832 6.19938 7.03988 5.9751 6.73096C5.75081 6.41781 5.61328 6.06234 5.5625 5.66455H1.53809V8.82568C1.53809 9.15576 1.62272 9.40544 1.79199 9.57471C1.96126 9.73975 2.20459 9.82227 2.52197 9.82227Z" fill="#F5234B" fill-opacity="0.4" style="mix-blend-mode:multiply"/>
</svg>
