<svg width="14" height="13" viewBox="0 0 14 13" fill="none" xmlns="http://www.w3.org/2000/svg">
<path d="M0.79834 5.22363C0.79834 4.52539 0.929525 3.87158 1.19189 3.26221C1.45426 2.6486 1.8182 2.10905 2.28369 1.64355C2.74919 1.17806 3.28662 0.814128 3.896 0.551758C4.5096 0.289388 5.16553 0.158203 5.86377 0.158203C6.56201 0.158203 7.21582 0.289388 7.8252 0.551758C8.4388 0.814128 8.97835 1.17806 9.44385 1.64355C9.90934 2.10905 10.2733 2.6486 10.5356 3.26221C10.798 3.87158 10.9292 4.52539 10.9292 5.22363C10.9292 5.80339 10.8361 6.35352 10.6499 6.87402C10.4679 7.39453 10.214 7.86637 9.88818 8.28955L12.9922 11.4126C13.0599 11.4803 13.1107 11.5586 13.1445 11.6475C13.1826 11.7363 13.2017 11.8315 13.2017 11.9331C13.2017 12.0728 13.1699 12.1997 13.1064 12.314C13.0472 12.4282 12.9626 12.5171 12.8525 12.5806C12.7425 12.6483 12.6156 12.6821 12.4717 12.6821C12.3701 12.6821 12.2728 12.6631 12.1797 12.625C12.0908 12.5911 12.0083 12.5382 11.9321 12.4663L8.80908 9.33691C8.39437 9.63314 7.93734 9.86589 7.43799 10.0352C6.93864 10.2044 6.4139 10.2891 5.86377 10.2891C5.16553 10.2891 4.5096 10.1579 3.896 9.89551C3.28662 9.63314 2.74919 9.26921 2.28369 8.80371C1.8182 8.33822 1.45426 7.80078 1.19189 7.19141C0.929525 6.5778 0.79834 5.92188 0.79834 5.22363ZM1.88379 5.22363C1.88379 5.77376 1.98535 6.29004 2.18848 6.77246C2.39583 7.25065 2.68148 7.67171 3.04541 8.03564C3.41357 8.39958 3.83675 8.68522 4.31494 8.89258C4.79736 9.09993 5.31364 9.20361 5.86377 9.20361C6.4139 9.20361 6.92806 9.09993 7.40625 8.89258C7.88867 8.68522 8.31185 8.39958 8.67578 8.03564C9.03971 7.67171 9.32536 7.25065 9.53271 6.77246C9.74007 6.29004 9.84375 5.77376 9.84375 5.22363C9.84375 4.6735 9.74007 4.15934 9.53271 3.68115C9.32536 3.19873 9.03971 2.77555 8.67578 2.41162C8.31185 2.04346 7.88867 1.75781 7.40625 1.55469C6.92806 1.34733 6.4139 1.24365 5.86377 1.24365C5.31364 1.24365 4.79736 1.34733 4.31494 1.55469C3.83675 1.75781 3.41357 2.04346 3.04541 2.41162C2.68148 2.77555 2.39583 3.19873 2.18848 3.68115C1.98535 4.15934 1.88379 4.6735 1.88379 5.22363Z" fill="#F5234B" style="mix-blend-mode:multiply"/>
<path d="M0.79834 5.22363C0.79834 4.52539 0.929525 3.87158 1.19189 3.26221C1.45426 2.6486 1.8182 2.10905 2.28369 1.64355C2.74919 1.17806 3.28662 0.814128 3.896 0.551758C4.5096 0.289388 5.16553 0.158203 5.86377 0.158203C6.56201 0.158203 7.21582 0.289388 7.8252 0.551758C8.4388 0.814128 8.97835 1.17806 9.44385 1.64355C9.90934 2.10905 10.2733 2.6486 10.5356 3.26221C10.798 3.87158 10.9292 4.52539 10.9292 5.22363C10.9292 5.80339 10.8361 6.35352 10.6499 6.87402C10.4679 7.39453 10.214 7.86637 9.88818 8.28955L12.9922 11.4126C13.0599 11.4803 13.1107 11.5586 13.1445 11.6475C13.1826 11.7363 13.2017 11.8315 13.2017 11.9331C13.2017 12.0728 13.1699 12.1997 13.1064 12.314C13.0472 12.4282 12.9626 12.5171 12.8525 12.5806C12.7425 12.6483 12.6156 12.6821 12.4717 12.6821C12.3701 12.6821 12.2728 12.6631 12.1797 12.625C12.0908 12.5911 12.0083 12.5382 11.9321 12.4663L8.80908 9.33691C8.39437 9.63314 7.93734 9.86589 7.43799 10.0352C6.93864 10.2044 6.4139 10.2891 5.86377 10.2891C5.16553 10.2891 4.5096 10.1579 3.896 9.89551C3.28662 9.63314 2.74919 9.26921 2.28369 8.80371C1.8182 8.33822 1.45426 7.80078 1.19189 7.19141C0.929525 6.5778 0.79834 5.92188 0.79834 5.22363ZM1.88379 5.22363C1.88379 5.77376 1.98535 6.29004 2.18848 6.77246C2.39583 7.25065 2.68148 7.67171 3.04541 8.03564C3.41357 8.39958 3.83675 8.68522 4.31494 8.89258C4.79736 9.09993 5.31364 9.20361 5.86377 9.20361C6.4139 9.20361 6.92806 9.09993 7.40625 8.89258C7.88867 8.68522 8.31185 8.39958 8.67578 8.03564C9.03971 7.67171 9.32536 7.25065 9.53271 6.77246C9.74007 6.29004 9.84375 5.77376 9.84375 5.22363C9.84375 4.6735 9.74007 4.15934 9.53271 3.68115C9.32536 3.19873 9.03971 2.77555 8.67578 2.41162C8.31185 2.04346 7.88867 1.75781 7.40625 1.55469C6.92806 1.34733 6.4139 1.24365 5.86377 1.24365C5.31364 1.24365 4.79736 1.34733 4.31494 1.55469C3.83675 1.75781 3.41357 2.04346 3.04541 2.41162C2.68148 2.77555 2.39583 3.19873 2.18848 3.68115C1.98535 4.15934 1.88379 4.6735 1.88379 5.22363Z" fill="#F5234B" fill-opacity="0.4" style="mix-blend-mode:multiply"/>
</svg>
