<svg width="14" height="14" viewBox="0 0 14 14" fill="none" xmlns="http://www.w3.org/2000/svg">
<path d="M7 13.8916C6.1071 13.8916 5.26921 13.7223 4.48633 13.3838C3.70345 13.0495 3.01579 12.5861 2.42334 11.9937C1.83089 11.4012 1.3654 10.7135 1.02686 9.93066C0.692546 9.14779 0.525391 8.3099 0.525391 7.41699C0.525391 6.52409 0.692546 5.6862 1.02686 4.90332C1.3654 4.12044 1.83089 3.43278 2.42334 2.84033C3.01579 2.24365 3.70345 1.77816 4.48633 1.44385C5.26921 1.10954 6.1071 0.942383 7 0.942383C7.8929 0.942383 8.73079 1.10954 9.51367 1.44385C10.2965 1.77816 10.9842 2.24365 11.5767 2.84033C12.1691 3.43278 12.6325 4.12044 12.9668 4.90332C13.3053 5.6862 13.4746 6.52409 13.4746 7.41699C13.4746 8.3099 13.3053 9.14779 12.9668 9.93066C12.6325 10.7135 12.1691 11.4012 11.5767 11.9937C10.9842 12.5861 10.2965 13.0495 9.51367 13.3838C8.73079 13.7223 7.8929 13.8916 7 13.8916ZM7 12.8125C7.74479 12.8125 8.44303 12.6729 9.09473 12.3936C9.74642 12.1143 10.3198 11.7271 10.8149 11.2319C11.3101 10.7368 11.6973 10.1634 11.9766 9.51172C12.2559 8.86003 12.3955 8.16178 12.3955 7.41699C12.3955 6.6722 12.2559 5.97396 11.9766 5.32227C11.6973 4.66634 11.3101 4.09294 10.8149 3.60205C10.3198 3.10693 9.74642 2.71973 9.09473 2.44043C8.44303 2.16113 7.74479 2.02148 7 2.02148C6.25521 2.02148 5.55697 2.16113 4.90527 2.44043C4.25358 2.71973 3.68018 3.10693 3.18506 3.60205C2.68994 4.09294 2.30273 4.66634 2.02344 5.32227C1.74414 5.97396 1.60449 6.6722 1.60449 7.41699C1.60449 8.16178 1.74414 8.86003 2.02344 9.51172C2.30273 10.1634 2.68994 10.7368 3.18506 11.2319C3.68018 11.7271 4.25358 12.1143 4.90527 12.3936C5.55697 12.6729 6.25521 12.8125 7 12.8125ZM6.30176 10.4258C6.19596 10.4258 6.09863 10.4025 6.00977 10.356C5.92513 10.3094 5.84261 10.2354 5.76221 10.1338L4.21338 8.22949C4.11605 8.09831 4.06738 7.96712 4.06738 7.83594C4.06738 7.69629 4.11393 7.5778 4.20703 7.48047C4.30436 7.37891 4.42074 7.32812 4.55615 7.32812C4.64502 7.32812 4.72542 7.34717 4.79736 7.38525C4.87354 7.41911 4.94971 7.48682 5.02588 7.58838L6.27637 9.20703L8.91064 4.97949C9.02913 4.78906 9.17725 4.69385 9.35498 4.69385C9.48617 4.69385 9.60465 4.73617 9.71045 4.8208C9.81624 4.90544 9.86914 5.01758 9.86914 5.15723C9.86914 5.22917 9.85221 5.30111 9.81836 5.37305C9.78874 5.44076 9.75488 5.50423 9.7168 5.56348L6.81592 10.1338C6.68896 10.3285 6.51758 10.4258 6.30176 10.4258Z" fill="#F5234B" style="mix-blend-mode:multiply"/>
<path d="M7 13.8916C6.1071 13.8916 5.26921 13.7223 4.48633 13.3838C3.70345 13.0495 3.01579 12.5861 2.42334 11.9937C1.83089 11.4012 1.3654 10.7135 1.02686 9.93066C0.692546 9.14779 0.525391 8.3099 0.525391 7.41699C0.525391 6.52409 0.692546 5.6862 1.02686 4.90332C1.3654 4.12044 1.83089 3.43278 2.42334 2.84033C3.01579 2.24365 3.70345 1.77816 4.48633 1.44385C5.26921 1.10954 6.1071 0.942383 7 0.942383C7.8929 0.942383 8.73079 1.10954 9.51367 1.44385C10.2965 1.77816 10.9842 2.24365 11.5767 2.84033C12.1691 3.43278 12.6325 4.12044 12.9668 4.90332C13.3053 5.6862 13.4746 6.52409 13.4746 7.41699C13.4746 8.3099 13.3053 9.14779 12.9668 9.93066C12.6325 10.7135 12.1691 11.4012 11.5767 11.9937C10.9842 12.5861 10.2965 13.0495 9.51367 13.3838C8.73079 13.7223 7.8929 13.8916 7 13.8916ZM7 12.8125C7.74479 12.8125 8.44303 12.6729 9.09473 12.3936C9.74642 12.1143 10.3198 11.7271 10.8149 11.2319C11.3101 10.7368 11.6973 10.1634 11.9766 9.51172C12.2559 8.86003 12.3955 8.16178 12.3955 7.41699C12.3955 6.6722 12.2559 5.97396 11.9766 5.32227C11.6973 4.66634 11.3101 4.09294 10.8149 3.60205C10.3198 3.10693 9.74642 2.71973 9.09473 2.44043C8.44303 2.16113 7.74479 2.02148 7 2.02148C6.25521 2.02148 5.55697 2.16113 4.90527 2.44043C4.25358 2.71973 3.68018 3.10693 3.18506 3.60205C2.68994 4.09294 2.30273 4.66634 2.02344 5.32227C1.74414 5.97396 1.60449 6.6722 1.60449 7.41699C1.60449 8.16178 1.74414 8.86003 2.02344 9.51172C2.30273 10.1634 2.68994 10.7368 3.18506 11.2319C3.68018 11.7271 4.25358 12.1143 4.90527 12.3936C5.55697 12.6729 6.25521 12.8125 7 12.8125ZM6.30176 10.4258C6.19596 10.4258 6.09863 10.4025 6.00977 10.356C5.92513 10.3094 5.84261 10.2354 5.76221 10.1338L4.21338 8.22949C4.11605 8.09831 4.06738 7.96712 4.06738 7.83594C4.06738 7.69629 4.11393 7.5778 4.20703 7.48047C4.30436 7.37891 4.42074 7.32812 4.55615 7.32812C4.64502 7.32812 4.72542 7.34717 4.79736 7.38525C4.87354 7.41911 4.94971 7.48682 5.02588 7.58838L6.27637 9.20703L8.91064 4.97949C9.02913 4.78906 9.17725 4.69385 9.35498 4.69385C9.48617 4.69385 9.60465 4.73617 9.71045 4.8208C9.81624 4.90544 9.86914 5.01758 9.86914 5.15723C9.86914 5.22917 9.85221 5.30111 9.81836 5.37305C9.78874 5.44076 9.75488 5.50423 9.7168 5.56348L6.81592 10.1338C6.68896 10.3285 6.51758 10.4258 6.30176 10.4258Z" fill="#F5234B" fill-opacity="0.4" style="mix-blend-mode:multiply"/>
</svg>
