<svg width="14" height="13" viewBox="0 0 14 13" fill="none" xmlns="http://www.w3.org/2000/svg">
<path d="M2.66455 12.2695C2.00016 12.2695 1.50081 12.1045 1.1665 11.7744C0.836426 11.4486 0.671387 10.9577 0.671387 10.3018V2.55127C0.671387 1.89535 0.836426 1.40446 1.1665 1.07861C1.50081 0.748535 2.00016 0.583496 2.66455 0.583496H11.3354C11.9998 0.583496 12.4971 0.748535 12.8271 1.07861C13.1572 1.40446 13.3223 1.89535 13.3223 2.55127V10.3018C13.3223 10.9577 13.1572 11.4486 12.8271 11.7744C12.4971 12.1045 11.9998 12.2695 11.3354 12.2695H2.66455ZM2.56934 11.2476H11.418C11.7015 11.2476 11.9194 11.1714 12.0718 11.019C12.2241 10.8709 12.3003 10.6509 12.3003 10.3589V4.37305C12.3003 4.08105 12.2241 3.861 12.0718 3.71289C11.9194 3.56055 11.7015 3.48438 11.418 3.48438H2.56934C2.29004 3.48438 2.07422 3.56055 1.92188 3.71289C1.76953 3.861 1.69336 4.08105 1.69336 4.37305V10.3589C1.69336 10.6509 1.76953 10.8709 1.92188 11.019C2.07422 11.1714 2.29004 11.2476 2.56934 11.2476ZM5.76221 5.76953C5.65218 5.76953 5.57389 5.74837 5.52734 5.70605C5.48503 5.66374 5.46387 5.58757 5.46387 5.47754V5.10303C5.46387 4.993 5.48503 4.91895 5.52734 4.88086C5.57389 4.83854 5.65218 4.81738 5.76221 4.81738H6.13672C6.24674 4.81738 6.32292 4.83854 6.36523 4.88086C6.41178 4.91895 6.43506 4.993 6.43506 5.10303V5.47754C6.43506 5.58757 6.41178 5.66374 6.36523 5.70605C6.32292 5.74837 6.24674 5.76953 6.13672 5.76953H5.76221ZM7.86963 5.76953C7.7596 5.76953 7.68343 5.74837 7.64111 5.70605C7.5988 5.66374 7.57764 5.58757 7.57764 5.47754V5.10303C7.57764 4.993 7.5988 4.91895 7.64111 4.88086C7.68343 4.83854 7.7596 4.81738 7.86963 4.81738H8.24414C8.3584 4.81738 8.43669 4.83854 8.479 4.88086C8.52132 4.91895 8.54248 4.993 8.54248 5.10303V5.47754C8.54248 5.58757 8.52132 5.66374 8.479 5.70605C8.43669 5.74837 8.3584 5.76953 8.24414 5.76953H7.86963ZM9.9834 5.76953C9.86914 5.76953 9.79085 5.74837 9.74854 5.70605C9.70622 5.66374 9.68506 5.58757 9.68506 5.47754V5.10303C9.68506 4.993 9.70622 4.91895 9.74854 4.88086C9.79085 4.83854 9.86914 4.81738 9.9834 4.81738H10.3516C10.4658 4.81738 10.5441 4.83854 10.5864 4.88086C10.6287 4.91895 10.6499 4.993 10.6499 5.10303V5.47754C10.6499 5.58757 10.6287 5.66374 10.5864 5.70605C10.5441 5.74837 10.4658 5.76953 10.3516 5.76953H9.9834ZM3.65479 7.84521C3.54053 7.84521 3.46224 7.82406 3.41992 7.78174C3.3776 7.73942 3.35645 7.66325 3.35645 7.55322V7.18506C3.35645 7.0708 3.3776 6.99463 3.41992 6.95654C3.46224 6.91423 3.54053 6.89307 3.65479 6.89307H4.0293C4.13932 6.89307 4.21549 6.91423 4.25781 6.95654C4.30013 6.99463 4.32129 7.0708 4.32129 7.18506V7.55322C4.32129 7.66325 4.30013 7.73942 4.25781 7.78174C4.21549 7.82406 4.13932 7.84521 4.0293 7.84521H3.65479ZM5.76221 7.84521C5.65218 7.84521 5.57389 7.82406 5.52734 7.78174C5.48503 7.73942 5.46387 7.66325 5.46387 7.55322V7.18506C5.46387 7.0708 5.48503 6.99463 5.52734 6.95654C5.57389 6.91423 5.65218 6.89307 5.76221 6.89307H6.13672C6.24674 6.89307 6.32292 6.91423 6.36523 6.95654C6.41178 6.99463 6.43506 7.0708 6.43506 7.18506V7.55322C6.43506 7.66325 6.41178 7.73942 6.36523 7.78174C6.32292 7.82406 6.24674 7.84521 6.13672 7.84521H5.76221ZM7.86963 7.84521C7.7596 7.84521 7.68343 7.82406 7.64111 7.78174C7.5988 7.73942 7.57764 7.66325 7.57764 7.55322V7.18506C7.57764 7.0708 7.5988 6.99463 7.64111 6.95654C7.68343 6.91423 7.7596 6.89307 7.86963 6.89307H8.24414C8.3584 6.89307 8.43669 6.91423 8.479 6.95654C8.52132 6.99463 8.54248 7.0708 8.54248 7.18506V7.55322C8.54248 7.66325 8.52132 7.73942 8.479 7.78174C8.43669 7.82406 8.3584 7.84521 8.24414 7.84521H7.86963ZM9.9834 7.84521C9.86914 7.84521 9.79085 7.82406 9.74854 7.78174C9.70622 7.73942 9.68506 7.66325 9.68506 7.55322V7.18506C9.68506 7.0708 9.70622 6.99463 9.74854 6.95654C9.79085 6.91423 9.86914 6.89307 9.9834 6.89307H10.3516C10.4658 6.89307 10.5441 6.91423 10.5864 6.95654C10.6287 6.99463 10.6499 7.0708 10.6499 7.18506V7.55322C10.6499 7.66325 10.6287 7.73942 10.5864 7.78174C10.5441 7.82406 10.4658 7.84521 10.3516 7.84521H9.9834ZM3.65479 9.9209C3.54053 9.9209 3.46224 9.90186 3.41992 9.86377C3.3776 9.82145 3.35645 9.74316 3.35645 9.62891V9.26074C3.35645 9.14648 3.3776 9.07031 3.41992 9.03223C3.46224 8.98991 3.54053 8.96875 3.65479 8.96875H4.0293C4.13932 8.96875 4.21549 8.98991 4.25781 9.03223C4.30013 9.07031 4.32129 9.14648 4.32129 9.26074V9.62891C4.32129 9.74316 4.30013 9.82145 4.25781 9.86377C4.21549 9.90186 4.13932 9.9209 4.0293 9.9209H3.65479ZM5.76221 9.9209C5.65218 9.9209 5.57389 9.90186 5.52734 9.86377C5.48503 9.82145 5.46387 9.74316 5.46387 9.62891V9.26074C5.46387 9.14648 5.48503 9.07031 5.52734 9.03223C5.57389 8.98991 5.65218 8.96875 5.76221 8.96875H6.13672C6.24674 8.96875 6.32292 8.98991 6.36523 9.03223C6.41178 9.07031 6.43506 9.14648 6.43506 9.26074V9.62891C6.43506 9.74316 6.41178 9.82145 6.36523 9.86377C6.32292 9.90186 6.24674 9.9209 6.13672 9.9209H5.76221ZM7.86963 9.9209C7.7596 9.9209 7.68343 9.90186 7.64111 9.86377C7.5988 9.82145 7.57764 9.74316 7.57764 9.62891V9.26074C7.57764 9.14648 7.5988 9.07031 7.64111 9.03223C7.68343 8.98991 7.7596 8.96875 7.86963 8.96875H8.24414C8.3584 8.96875 8.43669 8.98991 8.479 9.03223C8.52132 9.07031 8.54248 9.14648 8.54248 9.26074V9.62891C8.54248 9.74316 8.52132 9.82145 8.479 9.86377C8.43669 9.90186 8.3584 9.9209 8.24414 9.9209H7.86963Z" fill="#F5234B" style="mix-blend-mode:multiply"/>
<path d="M2.66455 12.2695C2.00016 12.2695 1.50081 12.1045 1.1665 11.7744C0.836426 11.4486 0.671387 10.9577 0.671387 10.3018V2.55127C0.671387 1.89535 0.836426 1.40446 1.1665 1.07861C1.50081 0.748535 2.00016 0.583496 2.66455 0.583496H11.3354C11.9998 0.583496 12.4971 0.748535 12.8271 1.07861C13.1572 1.40446 13.3223 1.89535 13.3223 2.55127V10.3018C13.3223 10.9577 13.1572 11.4486 12.8271 11.7744C12.4971 12.1045 11.9998 12.2695 11.3354 12.2695H2.66455ZM2.56934 11.2476H11.418C11.7015 11.2476 11.9194 11.1714 12.0718 11.019C12.2241 10.8709 12.3003 10.6509 12.3003 10.3589V4.37305C12.3003 4.08105 12.2241 3.861 12.0718 3.71289C11.9194 3.56055 11.7015 3.48438 11.418 3.48438H2.56934C2.29004 3.48438 2.07422 3.56055 1.92188 3.71289C1.76953 3.861 1.69336 4.08105 1.69336 4.37305V10.3589C1.69336 10.6509 1.76953 10.8709 1.92188 11.019C2.07422 11.1714 2.29004 11.2476 2.56934 11.2476ZM5.76221 5.76953C5.65218 5.76953 5.57389 5.74837 5.52734 5.70605C5.48503 5.66374 5.46387 5.58757 5.46387 5.47754V5.10303C5.46387 4.993 5.48503 4.91895 5.52734 4.88086C5.57389 4.83854 5.65218 4.81738 5.76221 4.81738H6.13672C6.24674 4.81738 6.32292 4.83854 6.36523 4.88086C6.41178 4.91895 6.43506 4.993 6.43506 5.10303V5.47754C6.43506 5.58757 6.41178 5.66374 6.36523 5.70605C6.32292 5.74837 6.24674 5.76953 6.13672 5.76953H5.76221ZM7.86963 5.76953C7.7596 5.76953 7.68343 5.74837 7.64111 5.70605C7.5988 5.66374 7.57764 5.58757 7.57764 5.47754V5.10303C7.57764 4.993 7.5988 4.91895 7.64111 4.88086C7.68343 4.83854 7.7596 4.81738 7.86963 4.81738H8.24414C8.3584 4.81738 8.43669 4.83854 8.479 4.88086C8.52132 4.91895 8.54248 4.993 8.54248 5.10303V5.47754C8.54248 5.58757 8.52132 5.66374 8.479 5.70605C8.43669 5.74837 8.3584 5.76953 8.24414 5.76953H7.86963ZM9.9834 5.76953C9.86914 5.76953 9.79085 5.74837 9.74854 5.70605C9.70622 5.66374 9.68506 5.58757 9.68506 5.47754V5.10303C9.68506 4.993 9.70622 4.91895 9.74854 4.88086C9.79085 4.83854 9.86914 4.81738 9.9834 4.81738H10.3516C10.4658 4.81738 10.5441 4.83854 10.5864 4.88086C10.6287 4.91895 10.6499 4.993 10.6499 5.10303V5.47754C10.6499 5.58757 10.6287 5.66374 10.5864 5.70605C10.5441 5.74837 10.4658 5.76953 10.3516 5.76953H9.9834ZM3.65479 7.84521C3.54053 7.84521 3.46224 7.82406 3.41992 7.78174C3.3776 7.73942 3.35645 7.66325 3.35645 7.55322V7.18506C3.35645 7.0708 3.3776 6.99463 3.41992 6.95654C3.46224 6.91423 3.54053 6.89307 3.65479 6.89307H4.0293C4.13932 6.89307 4.21549 6.91423 4.25781 6.95654C4.30013 6.99463 4.32129 7.0708 4.32129 7.18506V7.55322C4.32129 7.66325 4.30013 7.73942 4.25781 7.78174C4.21549 7.82406 4.13932 7.84521 4.0293 7.84521H3.65479ZM5.76221 7.84521C5.65218 7.84521 5.57389 7.82406 5.52734 7.78174C5.48503 7.73942 5.46387 7.66325 5.46387 7.55322V7.18506C5.46387 7.0708 5.48503 6.99463 5.52734 6.95654C5.57389 6.91423 5.65218 6.89307 5.76221 6.89307H6.13672C6.24674 6.89307 6.32292 6.91423 6.36523 6.95654C6.41178 6.99463 6.43506 7.0708 6.43506 7.18506V7.55322C6.43506 7.66325 6.41178 7.73942 6.36523 7.78174C6.32292 7.82406 6.24674 7.84521 6.13672 7.84521H5.76221ZM7.86963 7.84521C7.7596 7.84521 7.68343 7.82406 7.64111 7.78174C7.5988 7.73942 7.57764 7.66325 7.57764 7.55322V7.18506C7.57764 7.0708 7.5988 6.99463 7.64111 6.95654C7.68343 6.91423 7.7596 6.89307 7.86963 6.89307H8.24414C8.3584 6.89307 8.43669 6.91423 8.479 6.95654C8.52132 6.99463 8.54248 7.0708 8.54248 7.18506V7.55322C8.54248 7.66325 8.52132 7.73942 8.479 7.78174C8.43669 7.82406 8.3584 7.84521 8.24414 7.84521H7.86963ZM9.9834 7.84521C9.86914 7.84521 9.79085 7.82406 9.74854 7.78174C9.70622 7.73942 9.68506 7.66325 9.68506 7.55322V7.18506C9.68506 7.0708 9.70622 6.99463 9.74854 6.95654C9.79085 6.91423 9.86914 6.89307 9.9834 6.89307H10.3516C10.4658 6.89307 10.5441 6.91423 10.5864 6.95654C10.6287 6.99463 10.6499 7.0708 10.6499 7.18506V7.55322C10.6499 7.66325 10.6287 7.73942 10.5864 7.78174C10.5441 7.82406 10.4658 7.84521 10.3516 7.84521H9.9834ZM3.65479 9.9209C3.54053 9.9209 3.46224 9.90186 3.41992 9.86377C3.3776 9.82145 3.35645 9.74316 3.35645 9.62891V9.26074C3.35645 9.14648 3.3776 9.07031 3.41992 9.03223C3.46224 8.98991 3.54053 8.96875 3.65479 8.96875H4.0293C4.13932 8.96875 4.21549 8.98991 4.25781 9.03223C4.30013 9.07031 4.32129 9.14648 4.32129 9.26074V9.62891C4.32129 9.74316 4.30013 9.82145 4.25781 9.86377C4.21549 9.90186 4.13932 9.9209 4.0293 9.9209H3.65479ZM5.76221 9.9209C5.65218 9.9209 5.57389 9.90186 5.52734 9.86377C5.48503 9.82145 5.46387 9.74316 5.46387 9.62891V9.26074C5.46387 9.14648 5.48503 9.07031 5.52734 9.03223C5.57389 8.98991 5.65218 8.96875 5.76221 8.96875H6.13672C6.24674 8.96875 6.32292 8.98991 6.36523 9.03223C6.41178 9.07031 6.43506 9.14648 6.43506 9.26074V9.62891C6.43506 9.74316 6.41178 9.82145 6.36523 9.86377C6.32292 9.90186 6.24674 9.9209 6.13672 9.9209H5.76221ZM7.86963 9.9209C7.7596 9.9209 7.68343 9.90186 7.64111 9.86377C7.5988 9.82145 7.57764 9.74316 7.57764 9.62891V9.26074C7.57764 9.14648 7.5988 9.07031 7.64111 9.03223C7.68343 8.98991 7.7596 8.96875 7.86963 8.96875H8.24414C8.3584 8.96875 8.43669 8.98991 8.479 9.03223C8.52132 9.07031 8.54248 9.14648 8.54248 9.26074V9.62891C8.54248 9.74316 8.52132 9.82145 8.479 9.86377C8.43669 9.90186 8.3584 9.9209 8.24414 9.9209H7.86963Z" fill="#F5234B" fill-opacity="0.4" style="mix-blend-mode:multiply"/>
</svg>
