<svg width="17" height="17" viewBox="0 0 17 17" fill="none" xmlns="http://www.w3.org/2000/svg">
<path d="M11.1792 14.5L9.71675 15.9437C9.42925 16.2312 9.07925 16.375 8.66675 16.375C8.25425 16.375 7.90425 16.2312 7.61675 15.9437L6.15425 14.5H4.16675C3.75425 14.5 3.401 14.353 3.107 14.059C2.813 13.765 2.66625 13.412 2.66675 13V11.0125L1.223 9.55C0.935498 9.2625 0.791748 8.9125 0.791748 8.5C0.791748 8.0875 0.935498 7.7375 1.223 7.45L2.66675 5.9875V4C2.66675 3.5875 2.81375 3.23425 3.10775 2.94025C3.40175 2.64625 3.75475 2.4995 4.16675 2.5H6.15425L7.61675 1.05625C7.90425 0.76875 8.25425 0.625 8.66675 0.625C9.07925 0.625 9.42925 0.76875 9.71675 1.05625L11.1792 2.5H13.1667C13.5792 2.5 13.9325 2.647 14.2265 2.941C14.5205 3.235 14.6672 3.588 14.6667 4V5.9875L16.1105 7.45C16.398 7.7375 16.5417 8.0875 16.5417 8.5C16.5417 8.9125 16.398 9.2625 16.1105 9.55L14.6667 11.0125V13C14.6667 13.4125 14.5197 13.7657 14.2257 14.0597C13.9317 14.3538 13.5787 14.5005 13.1667 14.5H11.1792ZM8.66675 10.3563L10.1105 11.2188C10.248 11.3062 10.3822 11.3033 10.5132 11.2098C10.6442 11.1163 10.6912 10.988 10.6542 10.825L10.2792 9.19375L11.5542 8.0875C11.6792 7.975 11.7167 7.84075 11.6667 7.68475C11.6167 7.52875 11.5042 7.44425 11.3292 7.43125L9.6605 7.3L9.00425 5.74375C8.94175 5.59375 8.82925 5.51875 8.66675 5.51875C8.50425 5.51875 8.39175 5.59375 8.32925 5.74375L7.673 7.3L6.00425 7.43125C5.82925 7.44375 5.71675 7.52825 5.66675 7.68475C5.61675 7.84125 5.65425 7.9755 5.77925 8.0875L7.05425 9.19375L6.67925 10.825C6.64175 10.9875 6.68875 11.1158 6.82025 11.2098C6.95175 11.3038 7.086 11.3068 7.223 11.2188L8.66675 10.3563Z" fill="#B16C4C"/>
</svg>
