<svg width="8" height="5" viewBox="0 0 8 5" fill="none" xmlns="http://www.w3.org/2000/svg">
<path d="M3.79199 4.46167C3.61621 4.46167 3.45508 4.38965 3.30859 4.24561L0.598633 1.47339C0.544922 1.41724 0.503418 1.3562 0.474121 1.29028C0.447266 1.22192 0.433838 1.14868 0.433838 1.07056C0.433838 0.960693 0.459473 0.861816 0.510742 0.773926C0.564453 0.683594 0.635254 0.612793 0.723145 0.561523C0.811035 0.507812 0.908691 0.480957 1.01611 0.480957C1.17969 0.480957 1.32373 0.543213 1.44824 0.667725L3.94214 3.23486H3.64551L6.13208 0.667725C6.25659 0.543213 6.39941 0.480957 6.56055 0.480957C6.66797 0.480957 6.76562 0.507812 6.85352 0.561523C6.94141 0.612793 7.01099 0.683594 7.06226 0.773926C7.11597 0.861816 7.14282 0.960693 7.14282 1.07056C7.14282 1.22925 7.08789 1.36353 6.97803 1.47339L4.27173 4.24561C4.19849 4.31885 4.1228 4.37256 4.04468 4.40674C3.96655 4.44092 3.88232 4.45923 3.79199 4.46167Z" fill="black" fill-opacity="0.5"/>
</svg>
