<svg width="17" height="16" viewBox="0 0 17 16" fill="none" xmlns="http://www.w3.org/2000/svg">
<path d="M2.99719 15.6602C2.12838 15.6602 1.47538 15.4443 1.03821 15.0127C0.606567 14.5866 0.390747 13.9447 0.390747 13.0869V2.95166C0.390747 2.09391 0.606567 1.45199 1.03821 1.02588C1.47538 0.594238 2.12838 0.378418 2.99719 0.378418H14.3361C15.2049 0.378418 15.8551 0.594238 16.2867 1.02588C16.7184 1.45199 16.9342 2.09391 16.9342 2.95166V13.0869C16.9342 13.9447 16.7184 14.5866 16.2867 15.0127C15.8551 15.4443 15.2049 15.6602 14.3361 15.6602H2.99719ZM2.87268 14.3237H14.444C14.8147 14.3237 15.0997 14.2241 15.299 14.0249C15.4982 13.8312 15.5978 13.5435 15.5978 13.1616V5.33398C15.5978 4.95215 15.4982 4.66439 15.299 4.4707C15.0997 4.27148 14.8147 4.17188 14.444 4.17188H2.87268C2.50745 4.17188 2.22522 4.27148 2.026 4.4707C1.82678 4.66439 1.72717 4.95215 1.72717 5.33398V13.1616C1.72717 13.5435 1.82678 13.8312 2.026 14.0249C2.22522 14.2241 2.50745 14.3237 2.87268 14.3237ZM7.04797 7.16016C6.90409 7.16016 6.80172 7.13249 6.74084 7.07715C6.68551 7.02181 6.65784 6.9222 6.65784 6.77832V6.28857C6.65784 6.14469 6.68551 6.04785 6.74084 5.99805C6.80172 5.94271 6.90409 5.91504 7.04797 5.91504H7.53772C7.6816 5.91504 7.78121 5.94271 7.83655 5.99805C7.89742 6.04785 7.92786 6.14469 7.92786 6.28857V6.77832C7.92786 6.9222 7.89742 7.02181 7.83655 7.07715C7.78121 7.13249 7.6816 7.16016 7.53772 7.16016H7.04797ZM9.80383 7.16016C9.65995 7.16016 9.56034 7.13249 9.505 7.07715C9.44967 7.02181 9.422 6.9222 9.422 6.77832V6.28857C9.422 6.14469 9.44967 6.04785 9.505 5.99805C9.56034 5.94271 9.65995 5.91504 9.80383 5.91504H10.2936C10.443 5.91504 10.5454 5.94271 10.6007 5.99805C10.656 6.04785 10.6837 6.14469 10.6837 6.28857V6.77832C10.6837 6.9222 10.656 7.02181 10.6007 7.07715C10.5454 7.13249 10.443 7.16016 10.2936 7.16016H9.80383ZM12.568 7.16016C12.4186 7.16016 12.3162 7.13249 12.2609 7.07715C12.2055 7.02181 12.1779 6.9222 12.1779 6.77832V6.28857C12.1779 6.14469 12.2055 6.04785 12.2609 5.99805C12.3162 5.94271 12.4186 5.91504 12.568 5.91504H13.0494C13.1989 5.91504 13.3012 5.94271 13.3566 5.99805C13.4119 6.04785 13.4396 6.14469 13.4396 6.28857V6.77832C13.4396 6.9222 13.4119 7.02181 13.3566 7.07715C13.3012 7.13249 13.1989 7.16016 13.0494 7.16016H12.568ZM4.29211 9.87451C4.1427 9.87451 4.04032 9.84684 3.98499 9.7915C3.92965 9.73617 3.90198 9.63656 3.90198 9.49268V9.01123C3.90198 8.86182 3.92965 8.76221 3.98499 8.7124C4.04032 8.65706 4.1427 8.62939 4.29211 8.62939H4.78186C4.92574 8.62939 5.02535 8.65706 5.08069 8.7124C5.13603 8.76221 5.1637 8.86182 5.1637 9.01123V9.49268C5.1637 9.63656 5.13603 9.73617 5.08069 9.7915C5.02535 9.84684 4.92574 9.87451 4.78186 9.87451H4.29211ZM7.04797 9.87451C6.90409 9.87451 6.80172 9.84684 6.74084 9.7915C6.68551 9.73617 6.65784 9.63656 6.65784 9.49268V9.01123C6.65784 8.86182 6.68551 8.76221 6.74084 8.7124C6.80172 8.65706 6.90409 8.62939 7.04797 8.62939H7.53772C7.6816 8.62939 7.78121 8.65706 7.83655 8.7124C7.89742 8.76221 7.92786 8.86182 7.92786 9.01123V9.49268C7.92786 9.63656 7.89742 9.73617 7.83655 9.7915C7.78121 9.84684 7.6816 9.87451 7.53772 9.87451H7.04797ZM9.80383 9.87451C9.65995 9.87451 9.56034 9.84684 9.505 9.7915C9.44967 9.73617 9.422 9.63656 9.422 9.49268V9.01123C9.422 8.86182 9.44967 8.76221 9.505 8.7124C9.56034 8.65706 9.65995 8.62939 9.80383 8.62939H10.2936C10.443 8.62939 10.5454 8.65706 10.6007 8.7124C10.656 8.76221 10.6837 8.86182 10.6837 9.01123V9.49268C10.6837 9.63656 10.656 9.73617 10.6007 9.7915C10.5454 9.84684 10.443 9.87451 10.2936 9.87451H9.80383ZM12.568 9.87451C12.4186 9.87451 12.3162 9.84684 12.2609 9.7915C12.2055 9.73617 12.1779 9.63656 12.1779 9.49268V9.01123C12.1779 8.86182 12.2055 8.76221 12.2609 8.7124C12.3162 8.65706 12.4186 8.62939 12.568 8.62939H13.0494C13.1989 8.62939 13.3012 8.65706 13.3566 8.7124C13.4119 8.76221 13.4396 8.86182 13.4396 9.01123V9.49268C13.4396 9.63656 13.4119 9.73617 13.3566 9.7915C13.3012 9.84684 13.1989 9.87451 13.0494 9.87451H12.568ZM4.29211 12.5889C4.1427 12.5889 4.04032 12.564 3.98499 12.5142C3.92965 12.4588 3.90198 12.3564 3.90198 12.207V11.7256C3.90198 11.5762 3.92965 11.4766 3.98499 11.4268C4.04032 11.3714 4.1427 11.3438 4.29211 11.3438H4.78186C4.92574 11.3438 5.02535 11.3714 5.08069 11.4268C5.13603 11.4766 5.1637 11.5762 5.1637 11.7256V12.207C5.1637 12.3564 5.13603 12.4588 5.08069 12.5142C5.02535 12.564 4.92574 12.5889 4.78186 12.5889H4.29211ZM7.04797 12.5889C6.90409 12.5889 6.80172 12.564 6.74084 12.5142C6.68551 12.4588 6.65784 12.3564 6.65784 12.207V11.7256C6.65784 11.5762 6.68551 11.4766 6.74084 11.4268C6.80172 11.3714 6.90409 11.3438 7.04797 11.3438H7.53772C7.6816 11.3438 7.78121 11.3714 7.83655 11.4268C7.89742 11.4766 7.92786 11.5762 7.92786 11.7256V12.207C7.92786 12.3564 7.89742 12.4588 7.83655 12.5142C7.78121 12.564 7.6816 12.5889 7.53772 12.5889H7.04797ZM9.80383 12.5889C9.65995 12.5889 9.56034 12.564 9.505 12.5142C9.44967 12.4588 9.422 12.3564 9.422 12.207V11.7256C9.422 11.5762 9.44967 11.4766 9.505 11.4268C9.56034 11.3714 9.65995 11.3438 9.80383 11.3438H10.2936C10.443 11.3438 10.5454 11.3714 10.6007 11.4268C10.656 11.4766 10.6837 11.5762 10.6837 11.7256V12.207C10.6837 12.3564 10.656 12.4588 10.6007 12.5142C10.5454 12.564 10.443 12.5889 10.2936 12.5889H9.80383Z" fill="black" fill-opacity="0.5"/>
</svg>
