<svg width="18" height="18" viewBox="0 0 18 18" fill="none" xmlns="http://www.w3.org/2000/svg">
<path d="M9 17.4736C7.83236 17.4736 6.73665 17.2523 5.71289 16.8096C4.68913 16.3724 3.78988 15.7664 3.01514 14.9917C2.2404 14.217 1.63167 13.3177 1.18896 12.2939C0.75179 11.2702 0.533203 10.1745 0.533203 9.00684C0.533203 7.83919 0.75179 6.74349 1.18896 5.71973C1.63167 4.69596 2.2404 3.79671 3.01514 3.02197C3.78988 2.2417 4.68913 1.63298 5.71289 1.1958C6.73665 0.758626 7.83236 0.540039 9 0.540039C10.1676 0.540039 11.2633 0.758626 12.2871 1.1958C13.3109 1.63298 14.2101 2.2417 14.9849 3.02197C15.7596 3.79671 16.3656 4.69596 16.8027 5.71973C17.2454 6.74349 17.4668 7.83919 17.4668 9.00684C17.4668 10.1745 17.2454 11.2702 16.8027 12.2939C16.3656 13.3177 15.7596 14.217 14.9849 14.9917C14.2101 15.7664 13.3109 16.3724 12.2871 16.8096C11.2633 17.2523 10.1676 17.4736 9 17.4736ZM9 16.0625C9.97396 16.0625 10.887 15.8799 11.7393 15.5146C12.5915 15.1494 13.3413 14.6431 13.9888 13.9956C14.6362 13.3481 15.1426 12.5983 15.5078 11.7461C15.873 10.8939 16.0557 9.98079 16.0557 9.00684C16.0557 8.03288 15.873 7.11979 15.5078 6.26758C15.1426 5.40983 14.6362 4.65999 13.9888 4.01807C13.3413 3.37061 12.5915 2.86426 11.7393 2.49902C10.887 2.13379 9.97396 1.95117 9 1.95117C8.02604 1.95117 7.11296 2.13379 6.26074 2.49902C5.40853 2.86426 4.65869 3.37061 4.01123 4.01807C3.36377 4.65999 2.85742 5.40983 2.49219 6.26758C2.12695 7.11979 1.94434 8.03288 1.94434 9.00684C1.94434 9.98079 2.12695 10.8939 2.49219 11.7461C2.85742 12.5983 3.36377 13.3481 4.01123 13.9956C4.65869 14.6431 5.40853 15.1494 6.26074 15.5146C7.11296 15.8799 8.02604 16.0625 9 16.0625ZM5.12354 10.2021C4.7915 10.2021 4.50651 10.0859 4.26855 9.85352C4.03613 9.61556 3.91992 9.33057 3.91992 8.99854C3.91992 8.6665 4.03613 8.38428 4.26855 8.15186C4.50651 7.9139 4.7915 7.79492 5.12354 7.79492C5.45003 7.79492 5.73226 7.9139 5.97021 8.15186C6.20817 8.38428 6.32715 8.6665 6.32715 8.99854C6.32715 9.33057 6.20817 9.61556 5.97021 9.85352C5.73779 10.0859 5.45557 10.2021 5.12354 10.2021ZM8.9917 10.2021C8.6652 10.2021 8.38298 10.0859 8.14502 9.85352C7.9126 9.61556 7.79639 9.33057 7.79639 8.99854C7.79639 8.6665 7.9126 8.38428 8.14502 8.15186C8.38298 7.9139 8.6652 7.79492 8.9917 7.79492C9.32373 7.79492 9.60596 7.9139 9.83838 8.15186C10.0763 8.38428 10.1953 8.6665 10.1953 8.99854C10.1953 9.33057 10.0763 9.61556 9.83838 9.85352C9.60596 10.0859 9.32373 10.2021 8.9917 10.2021ZM12.8682 10.2021C12.5361 10.2021 12.2511 10.0859 12.0132 9.85352C11.7808 9.61556 11.6646 9.33057 11.6646 8.99854C11.6646 8.6665 11.7808 8.38428 12.0132 8.15186C12.2511 7.9139 12.5361 7.79492 12.8682 7.79492C13.2002 7.79492 13.4824 7.9139 13.7148 8.15186C13.9528 8.38428 14.0718 8.6665 14.0718 8.99854C14.0718 9.33057 13.9528 9.61556 13.7148 9.85352C13.4824 10.0859 13.2002 10.2021 12.8682 10.2021Z" fill="black" fill-opacity="0.5"/>
</svg>
