<svg width="20" height="18" viewBox="0 0 20 18" fill="none" xmlns="http://www.w3.org/2000/svg">
<path d="M4.27246 17.4072C3.625 17.4072 3.03011 17.244 2.48779 16.9175C1.94548 16.591 1.51107 16.1566 1.18457 15.6143C0.858073 15.0719 0.694824 14.4771 0.694824 13.8296C0.694824 13.1766 0.855306 12.5789 1.17627 12.0366C1.50277 11.4943 1.93717 11.0599 2.47949 10.7334C3.02181 10.4069 3.61947 10.2437 4.27246 10.2437C4.92546 10.2437 5.52035 10.4069 6.05713 10.7334C6.59945 11.0544 7.03385 11.486 7.36035 12.0283C7.68685 12.5706 7.8501 13.1711 7.8501 13.8296C7.8501 14.4771 7.68685 15.0719 7.36035 15.6143C7.03385 16.1566 6.59945 16.591 6.05713 16.9175C5.52035 17.244 4.92546 17.4072 4.27246 17.4072ZM4.27246 16.1953C4.69857 16.1953 5.09147 16.0874 5.45117 15.8716C5.81087 15.6558 6.09863 15.368 6.31445 15.0083C6.53027 14.6486 6.63818 14.2557 6.63818 13.8296C6.63818 13.3979 6.53027 13.0023 6.31445 12.6426C6.09863 12.2829 5.81087 11.9951 5.45117 11.7793C5.09147 11.5635 4.69857 11.4556 4.27246 11.4556C3.84635 11.4556 3.45345 11.5635 3.09375 11.7793C2.73405 11.9951 2.44629 12.2829 2.23047 12.6426C2.01465 13.0023 1.90674 13.3979 1.90674 13.8296C1.90674 14.2557 2.01465 14.6486 2.23047 15.0083C2.44629 15.368 2.73405 15.6558 3.09375 15.8716C3.45345 16.0874 3.84635 16.1953 4.27246 16.1953ZM10.3735 4.89795C10.1854 4.89795 10.0249 4.83431 9.89209 4.70703C9.76481 4.57422 9.70117 4.41374 9.70117 4.22559C9.70117 4.03743 9.76481 3.87972 9.89209 3.75244C10.0249 3.62516 10.1854 3.56152 10.3735 3.56152H18.6245C18.8127 3.56152 18.9731 3.62516 19.106 3.75244C19.2388 3.87972 19.3052 4.03743 19.3052 4.22559C19.3052 4.41374 19.2388 4.57422 19.106 4.70703C18.9731 4.83431 18.8127 4.89795 18.6245 4.89795H10.3735ZM10.3735 14.4937C10.1854 14.4937 10.0249 14.43 9.89209 14.3027C9.76481 14.1699 9.70117 14.0122 9.70117 13.8296C9.70117 13.6414 9.76481 13.4837 9.89209 13.3564C10.0249 13.2236 10.1854 13.1572 10.3735 13.1572H18.6245C18.8127 13.1572 18.9731 13.2236 19.106 13.3564C19.2388 13.4837 19.3052 13.6414 19.3052 13.8296C19.3052 14.0122 19.2388 14.1699 19.106 14.3027C18.9731 14.43 18.8127 14.4937 18.6245 14.4937H10.3735ZM4.27246 7.80322C3.625 7.80322 3.03011 7.63997 2.48779 7.31348C1.94548 6.98698 1.51107 6.55257 1.18457 6.01025C0.858073 5.46794 0.694824 4.87028 0.694824 4.21729C0.694824 3.56429 0.855306 2.96663 1.17627 2.42432C1.50277 1.882 1.93717 1.45036 2.47949 1.12939C3.02181 0.802897 3.61947 0.639648 4.27246 0.639648C4.92546 0.639648 5.52035 0.802897 6.05713 1.12939C6.59945 1.45036 7.03385 1.882 7.36035 2.42432C7.68685 2.96663 7.8501 3.56429 7.8501 4.21729C7.8501 4.87028 7.68685 5.46794 7.36035 6.01025C7.03385 6.55257 6.59945 6.98698 6.05713 7.31348C5.52035 7.63997 4.92546 7.80322 4.27246 7.80322ZM3.84912 6.14307C4.03174 6.14307 4.17285 6.06559 4.27246 5.91064L6.00732 3.18799C6.07926 3.07178 6.11523 2.95833 6.11523 2.84766C6.11523 2.74251 6.07096 2.6512 5.98242 2.57373C5.89941 2.49626 5.7998 2.45752 5.68359 2.45752C5.53418 2.45752 5.40967 2.53499 5.31006 2.68994L3.83252 5.06396L3.18506 4.24219C3.12972 4.17025 3.07161 4.11768 3.01074 4.08447C2.9554 4.05127 2.88623 4.03467 2.80322 4.03467C2.69255 4.03467 2.5957 4.07617 2.5127 4.15918C2.43522 4.24219 2.39648 4.34456 2.39648 4.46631C2.39648 4.59359 2.43245 4.7015 2.50439 4.79004L3.43408 5.91064C3.49495 5.98258 3.55583 6.04069 3.6167 6.08496C3.68311 6.1237 3.76058 6.14307 3.84912 6.14307Z" fill="black" fill-opacity="0.5"/>
</svg>
