<svg width="21" height="16" viewBox="0 0 21 16" fill="none" xmlns="http://www.w3.org/2000/svg">
<path d="M6.62292 14.7803V1.25H7.95935V14.7803H6.62292ZM12.7074 14.7803V1.25H14.0438V14.7803H12.7074ZM3.1532 15.6519C2.28438 15.6519 1.63139 15.436 1.19421 15.0044C0.762573 14.5783 0.546753 13.9391 0.546753 13.0869V2.94336C0.546753 2.08561 0.762573 1.44368 1.19421 1.01758C1.63139 0.585938 2.28438 0.370117 3.1532 0.370117H17.5135C18.3879 0.370117 19.0409 0.585938 19.4725 1.01758C19.9042 1.44922 20.12 2.09115 20.12 2.94336V13.0869C20.12 13.9391 19.9042 14.5783 19.4725 15.0044C19.0409 15.436 18.3879 15.6519 17.5135 15.6519H3.1532ZM3.1698 14.3154H17.4969C17.9065 14.3154 18.2219 14.2075 18.4432 13.9917C18.6701 13.7703 18.7836 13.4438 18.7836 13.0122V3.01807C18.7836 2.58643 18.6701 2.25993 18.4432 2.03857C18.2219 1.81722 17.9065 1.70654 17.4969 1.70654H3.1698C2.75476 1.70654 2.43656 1.81722 2.21521 2.03857C1.99386 2.25993 1.88318 2.58643 1.88318 3.01807V13.0122C1.88318 13.4438 1.99386 13.7703 2.21521 13.9917C2.43656 14.2075 2.75476 14.3154 3.1698 14.3154Z" fill="black" fill-opacity="0.85"/>
</svg>
