<svg width="16" height="4" viewBox="0 0 16 4" fill="none" xmlns="http://www.w3.org/2000/svg">
<path d="M1.83252 3.57568C1.53923 3.57568 1.2736 3.50651 1.03564 3.36816C0.797689 3.22428 0.606771 3.03337 0.462891 2.79541C0.324544 2.55745 0.255371 2.2946 0.255371 2.00684C0.255371 1.71354 0.324544 1.44792 0.462891 1.20996C0.606771 0.972005 0.797689 0.783854 1.03564 0.645508C1.2736 0.501628 1.53923 0.429688 1.83252 0.429688C2.12028 0.429688 2.38314 0.501628 2.62109 0.645508C2.85905 0.783854 3.0472 0.972005 3.18555 1.20996C3.32943 1.44792 3.40137 1.71354 3.40137 2.00684C3.40137 2.2946 3.32943 2.55745 3.18555 2.79541C3.0472 3.03337 2.85905 3.22428 2.62109 3.36816C2.38314 3.50651 2.12028 3.57568 1.83252 3.57568ZM8 3.57568C7.70671 3.57568 7.44108 3.50651 7.20312 3.36816C6.96517 3.22428 6.77425 3.03337 6.63037 2.79541C6.49202 2.55745 6.42285 2.2946 6.42285 2.00684C6.42285 1.71354 6.49202 1.44792 6.63037 1.20996C6.77425 0.972005 6.96517 0.783854 7.20312 0.645508C7.44108 0.501628 7.70671 0.429688 8 0.429688C8.28776 0.429688 8.55062 0.501628 8.78857 0.645508C9.02653 0.783854 9.21468 0.972005 9.35303 1.20996C9.49691 1.44792 9.56885 1.71354 9.56885 2.00684C9.56885 2.2946 9.49691 2.55745 9.35303 2.79541C9.21468 3.03337 9.02653 3.22428 8.78857 3.36816C8.55062 3.50651 8.28776 3.57568 8 3.57568ZM14.1675 3.57568C13.8742 3.57568 13.6086 3.50651 13.3706 3.36816C13.1326 3.22428 12.9417 3.03337 12.7979 2.79541C12.6595 2.55745 12.5903 2.2946 12.5903 2.00684C12.5903 1.71354 12.6595 1.44792 12.7979 1.20996C12.9417 0.972005 13.1326 0.783854 13.3706 0.645508C13.6086 0.501628 13.8742 0.429688 14.1675 0.429688C14.4552 0.429688 14.7181 0.501628 14.9561 0.645508C15.194 0.783854 15.3849 0.972005 15.5288 1.20996C15.6727 1.44792 15.7446 1.71354 15.7446 2.00684C15.7446 2.2946 15.6727 2.55745 15.5288 2.79541C15.3849 3.03337 15.194 3.22428 14.9561 3.36816C14.7181 3.50651 14.4552 3.57568 14.1675 3.57568Z" fill="black" fill-opacity="0.5"/>
</svg>
