<svg width="17" height="16" viewBox="0 0 17 16" fill="none" xmlns="http://www.w3.org/2000/svg">
<path d="M11.4717 15.0874C11.1064 15.0874 10.7716 14.9961 10.4673 14.8135C10.1685 14.6364 9.92773 14.3957 9.74512 14.0913C9.5625 13.7925 9.47119 13.4604 9.47119 13.0952C9.47119 12.73 9.5625 12.3979 9.74512 12.0991C9.92773 11.7948 10.1685 11.554 10.4673 11.377C10.7716 11.1943 11.1064 11.103 11.4717 11.103C11.8369 11.103 12.1689 11.1943 12.4678 11.377C12.7721 11.554 13.0129 11.7948 13.1899 12.0991C13.3726 12.3979 13.4639 12.73 13.4639 13.0952C13.4639 13.4604 13.3726 13.7925 13.1899 14.0913C13.0129 14.3957 12.7721 14.6364 12.4678 14.8135C12.1689 14.9961 11.8369 15.0874 11.4717 15.0874ZM11.4717 14.0664C11.7428 14.0664 11.9725 13.9723 12.1606 13.7842C12.3488 13.596 12.4429 13.3664 12.4429 13.0952C12.4429 12.8185 12.3488 12.5889 12.1606 12.4062C11.9725 12.2181 11.7428 12.124 11.4717 12.124C11.2005 12.124 10.9709 12.2181 10.7827 12.4062C10.5946 12.5889 10.5005 12.8185 10.5005 13.0952C10.5005 13.3664 10.5946 13.596 10.7827 13.7842C10.9709 13.9723 11.2005 14.0664 11.4717 14.0664ZM10.1519 12.4229V13.7593H0.796875C0.614258 13.7593 0.456543 13.6956 0.32373 13.5684C0.196452 13.4355 0.132812 13.2778 0.132812 13.0952C0.132812 12.9071 0.196452 12.7493 0.32373 12.6221C0.456543 12.4893 0.614258 12.4229 0.796875 12.4229H10.1519ZM16.2197 12.4229C16.3913 12.4229 16.5407 12.4893 16.668 12.6221C16.7952 12.7493 16.8589 12.9071 16.8589 13.0952C16.8589 13.2778 16.7952 13.4355 16.668 13.5684C16.5407 13.6956 16.3913 13.7593 16.2197 13.7593H12.916V12.4229H16.2197ZM5.61133 10.0239C5.24609 10.0239 4.9113 9.93262 4.60693 9.75C4.30811 9.56738 4.06738 9.32666 3.88477 9.02783C3.70768 8.72347 3.61914 8.38867 3.61914 8.02344C3.61914 7.6582 3.70768 7.32617 3.88477 7.02734C4.06738 6.72298 4.30811 6.48226 4.60693 6.30518C4.9113 6.12256 5.24609 6.03125 5.61133 6.03125C5.97656 6.03125 6.30859 6.12256 6.60742 6.30518C6.91178 6.48226 7.15251 6.72298 7.32959 7.02734C7.51221 7.32617 7.60352 7.6582 7.60352 8.02344C7.60352 8.38867 7.51221 8.72347 7.32959 9.02783C7.15251 9.32666 6.91178 9.56738 6.60742 9.75C6.30859 9.93262 5.97656 10.0239 5.61133 10.0239ZM5.61133 8.99463C5.88802 8.99463 6.11768 8.90055 6.30029 8.7124C6.48844 8.52425 6.58252 8.2946 6.58252 8.02344C6.58252 7.74674 6.48844 7.51709 6.30029 7.33447C6.11768 7.14632 5.88802 7.05225 5.61133 7.05225C5.34017 7.05225 5.11051 7.14632 4.92236 7.33447C4.73421 7.51709 4.64014 7.74674 4.64014 8.02344C4.64014 8.2946 4.73421 8.52425 4.92236 8.7124C5.11051 8.90055 5.34017 8.99463 5.61133 8.99463ZM0.763672 7.35107H4.18359V8.6875H0.763672C0.597656 8.6875 0.451009 8.62386 0.32373 8.49658C0.196452 8.3693 0.132812 8.21159 0.132812 8.02344C0.132812 7.83529 0.196452 7.67757 0.32373 7.55029C0.451009 7.41748 0.597656 7.35107 0.763672 7.35107ZM16.1865 7.35107C16.3747 7.35107 16.5324 7.41748 16.6597 7.55029C16.7925 7.67757 16.8589 7.83529 16.8589 8.02344C16.8589 8.21159 16.7925 8.3693 16.6597 8.49658C16.5324 8.62386 16.3747 8.6875 16.1865 8.6875H6.93115V7.35107H16.1865ZM11.4717 4.94385C11.1064 4.94385 10.7716 4.85531 10.4673 4.67822C10.1685 4.49561 9.92773 4.25488 9.74512 3.95605C9.5625 3.65169 9.47119 3.31689 9.47119 2.95166C9.47119 2.58643 9.5625 2.25439 9.74512 1.95557C9.92773 1.6512 10.1685 1.40771 10.4673 1.2251C10.7716 1.04248 11.1064 0.951172 11.4717 0.951172C11.8369 0.951172 12.1689 1.04248 12.4678 1.2251C12.7721 1.40771 13.0129 1.6512 13.1899 1.95557C13.3726 2.25439 13.4639 2.58643 13.4639 2.95166C13.4639 3.31689 13.3726 3.65169 13.1899 3.95605C13.0129 4.25488 12.7721 4.49561 12.4678 4.67822C12.1689 4.85531 11.8369 4.94385 11.4717 4.94385ZM11.4717 3.92285C11.7428 3.92285 11.9725 3.82878 12.1606 3.64062C12.3488 3.44694 12.4429 3.21452 12.4429 2.94336C12.4429 2.6722 12.3488 2.44255 12.1606 2.25439C11.9725 2.06624 11.7428 1.97217 11.4717 1.97217C11.2005 1.97217 10.9709 2.06624 10.7827 2.25439C10.5946 2.44255 10.5005 2.6722 10.5005 2.94336C10.5005 3.21452 10.5946 3.44694 10.7827 3.64062C10.9709 3.82878 11.2005 3.92285 11.4717 3.92285ZM10.1934 2.2876V3.62402H0.796875C0.614258 3.62402 0.456543 3.56038 0.32373 3.43311C0.196452 3.30029 0.132812 3.13981 0.132812 2.95166C0.132812 2.76904 0.196452 2.6141 0.32373 2.48682C0.456543 2.354 0.614258 2.2876 0.796875 2.2876H10.1934ZM16.2197 2.2876C16.3913 2.2876 16.5407 2.354 16.668 2.48682C16.7952 2.6141 16.8589 2.76904 16.8589 2.95166C16.8589 3.13981 16.7952 3.30029 16.668 3.43311C16.5407 3.56038 16.3913 3.62402 16.2197 3.62402H12.7998V2.2876H16.2197Z" fill="black" fill-opacity="0.5"/>
</svg>
