<svg width="18" height="18" viewBox="0 0 18 18" fill="none" xmlns="http://www.w3.org/2000/svg">
<path d="M9 17.4736C7.83236 17.4736 6.73665 17.2523 5.71289 16.8096C4.68913 16.3724 3.78988 15.7664 3.01514 14.9917C2.2404 14.217 1.63167 13.3177 1.18896 12.2939C0.75179 11.2702 0.533203 10.1745 0.533203 9.00684C0.533203 7.83919 0.75179 6.74349 1.18896 5.71973C1.63167 4.69596 2.2404 3.79671 3.01514 3.02197C3.78988 2.2417 4.68913 1.63298 5.71289 1.1958C6.73665 0.758626 7.83236 0.540039 9 0.540039C10.1676 0.540039 11.2633 0.758626 12.2871 1.1958C13.3109 1.63298 14.2101 2.2417 14.9849 3.02197C15.7596 3.79671 16.3656 4.69596 16.8027 5.71973C17.2454 6.74349 17.4668 7.83919 17.4668 9.00684C17.4668 10.1745 17.2454 11.2702 16.8027 12.2939C16.3656 13.3177 15.7596 14.217 14.9849 14.9917C14.2101 15.7664 13.3109 16.3724 12.2871 16.8096C11.2633 17.2523 10.1676 17.4736 9 17.4736ZM9 16.0625C9.97396 16.0625 10.887 15.8799 11.7393 15.5146C12.5915 15.1494 13.3413 14.6431 13.9888 13.9956C14.6362 13.3481 15.1426 12.5983 15.5078 11.7461C15.873 10.8939 16.0557 9.98079 16.0557 9.00684C16.0557 8.03288 15.873 7.11979 15.5078 6.26758C15.1426 5.40983 14.6362 4.65999 13.9888 4.01807C13.3413 3.37061 12.5915 2.86426 11.7393 2.49902C10.887 2.13379 9.97396 1.95117 9 1.95117C8.02604 1.95117 7.11296 2.13379 6.26074 2.49902C5.40853 2.86426 4.65869 3.37061 4.01123 4.01807C3.36377 4.65999 2.85742 5.40983 2.49219 6.26758C2.12695 7.11979 1.94434 8.03288 1.94434 9.00684C1.94434 9.98079 2.12695 10.8939 2.49219 11.7461C2.85742 12.5983 3.36377 13.3481 4.01123 13.9956C4.65869 14.6431 5.40853 15.1494 6.26074 15.5146C7.11296 15.8799 8.02604 16.0625 9 16.0625ZM14.6777 14.4771C14.1742 14.9696 13.582 15.3901 12.9014 15.7388C12.2262 16.0874 11.5428 16.353 10.8511 16.5356C10.1593 16.7238 9.54232 16.8179 9 16.8179C8.46322 16.8179 7.84619 16.7238 7.14893 16.5356C6.45719 16.353 5.771 16.0874 5.09033 15.7388C4.40967 15.3901 3.82031 14.9696 3.32227 14.4771L3.34717 14.3774C3.48551 13.9735 3.80924 13.575 4.31836 13.1821C4.82747 12.7892 5.48047 12.4655 6.27734 12.2109C7.07975 11.9564 7.9873 11.8291 9 11.8291C10.0182 11.8291 10.9258 11.9564 11.7227 12.2109C12.5251 12.4655 13.1781 12.7892 13.6816 13.1821C14.1908 13.575 14.5145 13.9762 14.6528 14.3857L14.6777 14.4771ZM9 10.418C8.46875 10.4124 7.9873 10.2741 7.55566 10.0029C7.12956 9.72624 6.78923 9.3527 6.53467 8.88232C6.28564 8.41195 6.15837 7.8807 6.15283 7.28857C6.1473 6.72965 6.27181 6.21777 6.52637 5.75293C6.78092 5.28809 7.12402 4.91732 7.55566 4.64062C7.9873 4.3584 8.46875 4.21729 9 4.21729C9.53125 4.21729 10.0099 4.3584 10.436 4.64062C10.8677 4.91732 11.2108 5.28809 11.4653 5.75293C11.7199 6.21777 11.8472 6.72965 11.8472 7.28857C11.8472 7.8807 11.7199 8.41471 11.4653 8.89062C11.2163 9.36654 10.876 9.74284 10.4443 10.0195C10.0127 10.2907 9.53125 10.4235 9 10.418Z" fill="black" fill-opacity="0.5"/>
</svg>
